<svg width="41" height="41" viewBox="0 0 41 41" fill="none" xmlns="http://www.w3.org/2000/svg">
<rect x="1.28003" y="1.25" width="39" height="39" rx="19.5" stroke="white"/>
<g clip-path="url(#clip0_2_464)">
<path d="M20.695 18.9833C21.7617 18.9833 22.6683 18.6011 23.415 17.8367C24.1617 17.0722 24.535 16.1567 24.535 15.09C24.535 14.0233 24.1617 13.1167 23.415 12.37C22.6683 11.6233 21.7617 11.25 20.695 11.25C19.6283 11.25 18.7217 11.6233 17.975 12.37C17.2283 13.1167 16.855 14.0233 16.855 15.09C16.855 16.1567 17.2283 17.0722 17.975 17.8367C18.7217 18.6011 19.6283 18.9833 20.695 18.9833ZM18.615 13.0633C19.1839 12.4944 19.8683 12.21 20.6683 12.21C21.4683 12.21 22.1617 12.4944 22.7483 13.0633C23.335 13.6322 23.6283 14.3167 23.6283 15.1167C23.6283 15.9167 23.3439 16.6011 22.775 17.17C22.2061 17.7389 21.5128 18.0233 20.695 18.0233C19.8772 18.0233 19.1839 17.7389 18.615 17.17C18.0461 16.6011 17.7617 15.9167 17.7617 15.1167C17.7617 14.3167 18.0461 13.6322 18.615 13.0633ZM27.415 23.57C27.415 23.25 27.3795 22.9033 27.3083 22.53C27.2372 22.1567 27.1483 21.8189 27.0417 21.5167C26.935 21.2144 26.7928 20.9033 26.615 20.5833C26.4372 20.2633 26.2328 19.9878 26.0017 19.7567C25.7706 19.5256 25.4772 19.3389 25.1217 19.1967C24.7661 19.0544 24.375 18.9833 23.9483 18.9833C23.8061 18.9833 23.5928 19.0722 23.3083 19.25L22.6683 19.6767C22.455 19.8189 22.1706 19.9433 21.815 20.05C21.4595 20.1567 21.1128 20.21 20.775 20.21C20.4372 20.21 20.0906 20.1567 19.735 20.05C19.3795 19.9433 19.1128 19.8189 18.935 19.6767L18.2417 19.25C17.9928 19.0722 17.7972 18.9833 17.655 18.9833C17.2283 18.9833 16.8372 19.0544 16.4817 19.1967C16.1261 19.3389 15.8239 19.5256 15.575 19.7567C15.3261 19.9878 15.1128 20.2633 14.935 20.5833C14.7572 20.9033 14.615 21.2233 14.5083 21.5433C14.4017 21.8633 14.3217 22.2011 14.2683 22.5567C14.215 22.9122 14.1795 23.2411 14.1617 23.5433C14.1439 23.8456 14.135 24.1567 14.135 24.4767C14.135 25.33 14.3928 26.0056 14.9083 26.5033C15.4239 27.0011 16.1083 27.25 16.9617 27.25H24.6417C25.4595 27.25 26.135 27.0011 26.6683 26.5033C27.2017 26.0056 27.4683 25.33 27.4683 24.4767C27.4683 24.1567 27.4506 23.8544 27.415 23.57ZM26.0283 25.81C25.6728 26.13 25.2106 26.29 24.6417 26.29H16.9617C16.3572 26.29 15.8861 26.13 15.5483 25.81C15.2106 25.49 15.0417 25.0456 15.0417 24.4767L15.095 23.6233C15.095 23.3389 15.1306 23.0367 15.2017 22.7167C15.2728 22.3967 15.3439 22.1033 15.415 21.8367C15.4861 21.57 15.5928 21.3122 15.735 21.0633C15.8772 20.8144 16.0372 20.61 16.215 20.45C16.3928 20.29 16.5972 20.1656 16.8283 20.0767C17.0595 19.9878 17.2995 19.9433 17.5483 19.9433L18.4017 20.4767C18.6861 20.6544 19.0417 20.8056 19.4683 20.93C19.895 21.0544 20.3306 21.1167 20.775 21.1167C21.2195 21.1167 21.6639 21.0544 22.1083 20.93C22.5528 20.8056 22.8995 20.6544 23.1483 20.4767L24.0017 19.9433C24.2861 19.9433 24.5439 19.9878 24.775 20.0767C25.0061 20.1656 25.2017 20.29 25.3617 20.45C25.5217 20.61 25.6728 20.8144 25.815 21.0633C25.9572 21.3122 26.0728 21.57 26.1617 21.8367C26.2506 22.1033 26.3217 22.3967 26.375 22.7167C26.4283 23.0367 26.4728 23.3389 26.5083 23.6233V24.4767C26.5083 25.0456 26.3483 25.49 26.0283 25.81Z" fill="white"/>
</g>
<defs>
<clipPath id="clip0_2_464">
<rect width="15.95" height="16" fill="white" transform="matrix(1 0 0 -1 12.8 27.25)"/>
</clipPath>
</defs>
</svg>
