<svg width="60" height="61" viewBox="0 0 60 61" fill="none" xmlns="http://www.w3.org/2000/svg">
<rect y="0.550049" width="60" height="60" rx="12" fill="#FFF8F6"/>
<g clip-path="url(#clip0_2_1640)">
<path d="M30.0867 33.3167C30.26 33.3167 30.39 33.2734 30.4767 33.1867C30.5633 33.1 30.6067 32.97 30.6067 32.7967V30.4567C30.6067 30.2256 30.52 30.0667 30.3467 29.98C30.1733 29.8934 30 29.8934 29.8267 29.98C29.6533 30.0667 29.5667 30.2256 29.5667 30.4567V32.7967C29.5667 32.97 29.6245 33.1 29.74 33.1867C29.8556 33.2734 29.9711 33.3167 30.0867 33.3167ZM30.0867 22.6567C30.26 22.6567 30.39 22.6134 30.4767 22.5267C30.5633 22.44 30.6067 22.3389 30.6067 22.2234V19.7967C30.6067 19.6234 30.52 19.4934 30.3467 19.4067C30.1733 19.32 30 19.32 29.8267 19.4067C29.6533 19.4934 29.5667 19.6234 29.5667 19.7967V22.2234C29.5667 22.3389 29.6245 22.44 29.74 22.5267C29.8556 22.6134 29.9711 22.6567 30.0867 22.6567ZM30.0867 28.03C30.26 28.03 30.39 27.9723 30.4767 27.8567C30.5633 27.7412 30.6067 27.6256 30.6067 27.51V25.17C30.6067 24.9967 30.5633 24.8667 30.4767 24.78C30.39 24.6934 30.2745 24.65 30.13 24.65C29.9856 24.65 29.8556 24.6934 29.74 24.78C29.6245 24.8667 29.5667 24.9967 29.5667 25.17V27.51C29.5667 27.6256 29.6245 27.7412 29.74 27.8567C29.8556 27.9723 29.9711 28.03 30.0867 28.03ZM33.64 22.6567C33.7556 22.6567 33.8711 22.6134 33.9867 22.5267C34.1022 22.44 34.16 22.3389 34.16 22.2234V19.7967C34.16 19.6812 34.1022 19.5656 33.9867 19.45C33.8711 19.3345 33.7556 19.2767 33.64 19.2767C33.5245 19.2767 33.4089 19.3345 33.2933 19.45C33.1778 19.5656 33.12 19.6812 33.12 19.7967V22.2234C33.12 22.3389 33.1778 22.44 33.2933 22.5267C33.4089 22.6134 33.5245 22.6567 33.64 22.6567ZM33.64 28.03C33.7556 28.03 33.8711 27.9723 33.9867 27.8567C34.1022 27.7412 34.16 27.6256 34.16 27.51V25.17C34.16 24.9967 34.1022 24.8667 33.9867 24.78C33.8711 24.6934 33.7556 24.65 33.64 24.65C33.5245 24.65 33.4089 24.6934 33.2933 24.78C33.1778 24.8667 33.12 24.9967 33.12 25.17V27.51C33.12 27.6256 33.1778 27.7412 33.2933 27.8567C33.4089 27.9723 33.5245 28.03 33.64 28.03ZM33.64 33.3167C33.7556 33.3167 33.8711 33.2734 33.9867 33.1867C34.1022 33.1 34.16 32.97 34.16 32.7967V30.4567C34.16 30.2834 34.1022 30.1534 33.9867 30.0667C33.8711 29.98 33.7556 29.9367 33.64 29.9367C33.5245 29.9367 33.4089 29.98 33.2933 30.0667C33.1778 30.1534 33.12 30.2834 33.12 30.4567V32.7967C33.12 32.97 33.1778 33.1 33.2933 33.1867C33.4089 33.2734 33.5245 33.3167 33.64 33.3167ZM39.5333 35.2234H39.9667C40.0822 35.2234 40.1833 35.18 40.27 35.0934C40.3567 35.0067 40.4 34.8912 40.4 34.7467C40.4 34.6023 40.3567 34.4867 40.27 34.4C40.1833 34.3134 40.0822 34.27 39.9667 34.27H39.5333C39.36 34.27 39.23 34.3134 39.1433 34.4C39.0567 34.4867 39.0133 34.6023 39.0133 34.7467C39.0133 34.8912 39.0567 35.0067 39.1433 35.0934C39.23 35.18 39.36 35.2234 39.5333 35.2234ZM39.5333 32.3634H39.9667C40.0822 32.3634 40.1833 32.32 40.27 32.2334C40.3567 32.1467 40.4 32.0312 40.4 31.8867C40.4 31.7423 40.3567 31.6123 40.27 31.4967C40.1833 31.3812 40.0822 31.3234 39.9667 31.3234H39.5333C39.36 31.3234 39.23 31.3812 39.1433 31.4967C39.0567 31.6123 39.0133 31.7423 39.0133 31.8867C39.0133 32.0312 39.0567 32.1467 39.1433 32.2334C39.23 32.32 39.36 32.3634 39.5333 32.3634ZM39.5333 38.0834H39.9667C40.0822 38.0834 40.1833 38.0256 40.27 37.91C40.3567 37.7945 40.4 37.6789 40.4 37.5634C40.4 37.4478 40.3567 37.3323 40.27 37.2167C40.1833 37.1012 40.0822 37.0434 39.9667 37.0434H39.5333C39.36 37.0434 39.23 37.1012 39.1433 37.2167C39.0567 37.3323 39.0133 37.4478 39.0133 37.5634C39.0133 37.6789 39.0567 37.7945 39.1433 37.91C39.23 38.0256 39.36 38.0834 39.5333 38.0834ZM24.1067 29.5034H24.54C24.6556 29.5034 24.7567 29.46 24.8433 29.3734C24.93 29.2867 24.9733 29.1712 24.9733 29.0267C24.9733 28.8823 24.93 28.7667 24.8433 28.68C24.7567 28.5934 24.6556 28.55 24.54 28.55H24.1067C23.9333 28.55 23.8033 28.5934 23.7167 28.68C23.63 28.7667 23.5867 28.8823 23.5867 29.0267C23.5867 29.1712 23.63 29.2867 23.7167 29.3734C23.8033 29.46 23.9333 29.5034 24.1067 29.5034ZM24.1067 26.6434H24.54C24.6556 26.6434 24.7567 26.6 24.8433 26.5134C24.93 26.4267 24.9733 26.3112 24.9733 26.1667C24.9733 26.0223 24.93 25.9067 24.8433 25.82C24.7567 25.7334 24.6556 25.69 24.54 25.69H24.1067C23.9333 25.69 23.8033 25.7334 23.7167 25.82C23.63 25.9067 23.5867 26.0223 23.5867 26.1667C23.5867 26.3112 23.63 26.4267 23.7167 26.5134C23.8033 26.6 23.9333 26.6434 24.1067 26.6434ZM24.1067 32.3634H24.54C24.6556 32.3634 24.7567 32.32 24.8433 32.2334C24.93 32.1467 24.9733 32.0312 24.9733 31.8867C24.9733 31.7423 24.93 31.6123 24.8433 31.4967C24.7567 31.3812 24.6556 31.3234 24.54 31.3234H24.1067C23.8756 31.3234 23.7167 31.41 23.63 31.5834C23.5433 31.7567 23.5433 31.93 23.63 32.1034C23.7167 32.2767 23.8756 32.3634 24.1067 32.3634ZM42.3067 27.25H37.6267V16.5034C37.6267 16.33 37.5833 16.2 37.4967 16.1134C37.41 16.0267 37.28 15.9834 37.1067 15.9834H26.62C26.5045 15.9834 26.3889 16.0412 26.2733 16.1567C26.1578 16.2723 26.1 16.3878 26.1 16.5034V22.7434H21.94C21.8245 22.7434 21.7089 22.7867 21.5933 22.8734C21.4778 22.96 21.42 23.09 21.42 23.2634V29.4167C21.42 29.59 21.4778 29.72 21.5933 29.8067C21.7089 29.8934 21.8389 29.9367 21.9833 29.9367C22.1278 29.9367 22.2433 29.8934 22.33 29.8067C22.4167 29.72 22.46 29.59 22.46 29.4167V23.6967H26.1V40.4234H22.46C22.2867 40.4234 22.1567 40.4812 22.07 40.5967C21.9833 40.7123 21.94 40.8423 21.94 40.9867C21.94 41.1312 21.9833 41.2467 22.07 41.3334C22.1567 41.42 22.2867 41.4634 22.46 41.4634H40.5733C41.2089 41.4634 41.7433 41.2467 42.1767 40.8134C42.61 40.38 42.8267 39.8745 42.8267 39.2967V27.77C42.8267 27.6545 42.7689 27.5389 42.6533 27.4234C42.5378 27.3078 42.4222 27.25 42.3067 27.25ZM30.6067 40.4234V36.5234H33.12V40.4234H30.6067ZM36.5867 40.4234H34.16V36.0034C34.16 35.83 34.1022 35.7 33.9867 35.6134C33.8711 35.5267 33.7556 35.4834 33.64 35.4834H30.0867C29.9711 35.4834 29.8556 35.5267 29.74 35.6134C29.6245 35.7 29.5667 35.83 29.5667 36.0034V40.4234H27.14V16.9367H36.5867V40.4234ZM41.7867 39.2967C41.7867 39.5856 41.6711 39.86 41.44 40.12C41.2089 40.38 40.92 40.51 40.5733 40.51H37.6267V28.29H41.7867V39.2967ZM23.3267 34.53C23.3267 33.6634 22.8933 32.8256 22.0267 32.0167C21.5645 31.5545 21.0733 31.1789 20.5533 30.89C20.4378 30.8323 20.2933 30.8323 20.12 30.89C19.6578 31.1789 19.1667 31.5545 18.6467 32.0167C17.78 32.8256 17.3467 33.6778 17.3467 34.5734C17.3467 35.4689 17.5778 36.2634 18.04 36.9567C18.5022 37.65 19.1089 38.0545 19.86 38.17V40.9434C19.86 41.1167 19.9033 41.2467 19.99 41.3334C20.0767 41.42 20.1922 41.4634 20.3367 41.4634C20.4811 41.4634 20.5967 41.42 20.6833 41.3334C20.77 41.2467 20.8133 41.1167 20.8133 40.9434V38.17C21.5645 38.0545 22.1711 37.65 22.6333 36.9567C23.0956 36.2634 23.3267 35.4545 23.3267 34.53ZM18.3 34.53C18.3 34.0678 18.56 33.5478 19.08 32.97C19.4267 32.6234 19.86 32.2767 20.38 31.93C20.8422 32.2767 21.2467 32.6234 21.5933 32.97C22.1133 33.5478 22.3733 34.0678 22.3733 34.53C22.3733 35.1656 22.2289 35.7289 21.94 36.22C21.6511 36.7112 21.2756 37.0145 20.8133 37.13V36.0034C20.8133 35.83 20.77 35.7 20.6833 35.6134C20.5967 35.5267 20.4811 35.4834 20.3367 35.4834C20.1922 35.4834 20.0767 35.5267 19.99 35.6134C19.9033 35.7 19.86 35.83 19.86 36.0034V37.13C19.3978 37.0145 19.0222 36.7112 18.7333 36.22C18.4445 35.7289 18.3 35.1656 18.3 34.53Z" fill="#1A1A1A"/>
</g>
<defs>
<clipPath id="clip0_2_1640">
<rect width="26" height="26" fill="white" transform="matrix(1 0 0 -1 17 41.55)"/>
</clipPath>
</defs>
</svg>
