<svg width="41" height="41" viewBox="0 0 41 41" fill="none" xmlns="http://www.w3.org/2000/svg">
<rect x="0.949951" y="0.390015" width="40" height="40" rx="20" fill="white"/>
<g clip-path="url(#clip0_2_498)">
<path d="M21.0099 22.19C21.1299 22.19 21.2199 22.16 21.2799 22.1C21.3399 22.04 21.3699 21.95 21.3699 21.83V20.21C21.3699 20.05 21.3099 19.94 21.1899 19.88C21.0699 19.82 20.9499 19.82 20.8299 19.88C20.7099 19.94 20.6499 20.05 20.6499 20.21V21.83C20.6499 21.95 20.6899 22.04 20.7699 22.1C20.8499 22.16 20.9299 22.19 21.0099 22.19ZM21.0099 14.81C21.1299 14.81 21.2199 14.78 21.2799 14.72C21.3399 14.66 21.3699 14.59 21.3699 14.51V12.83C21.3699 12.71 21.3099 12.62 21.1899 12.56C21.0699 12.5 20.9499 12.5 20.8299 12.56C20.7099 12.62 20.6499 12.71 20.6499 12.83V14.51C20.6499 14.59 20.6899 14.66 20.7699 14.72C20.8499 14.78 20.9299 14.81 21.0099 14.81ZM21.0099 18.53C21.1299 18.53 21.2199 18.49 21.2799 18.41C21.3399 18.33 21.3699 18.25 21.3699 18.17V16.55C21.3699 16.43 21.3399 16.34 21.2799 16.28C21.2199 16.22 21.1399 16.19 21.0399 16.19C20.9399 16.19 20.8499 16.22 20.7699 16.28C20.6899 16.34 20.6499 16.43 20.6499 16.55V18.17C20.6499 18.25 20.6899 18.33 20.7699 18.41C20.8499 18.49 20.9299 18.53 21.0099 18.53ZM23.4699 14.81C23.5499 14.81 23.6299 14.78 23.7099 14.72C23.7899 14.66 23.8299 14.59 23.8299 14.51V12.83C23.8299 12.75 23.7899 12.67 23.7099 12.59C23.6299 12.51 23.5499 12.47 23.4699 12.47C23.3899 12.47 23.3099 12.51 23.2299 12.59C23.1499 12.67 23.1099 12.75 23.1099 12.83V14.51C23.1099 14.59 23.1499 14.66 23.2299 14.72C23.3099 14.78 23.3899 14.81 23.4699 14.81ZM23.4699 18.53C23.5499 18.53 23.6299 18.49 23.7099 18.41C23.7899 18.33 23.8299 18.25 23.8299 18.17V16.55C23.8299 16.43 23.7899 16.34 23.7099 16.28C23.6299 16.22 23.5499 16.19 23.4699 16.19C23.3899 16.19 23.3099 16.22 23.2299 16.28C23.1499 16.34 23.1099 16.43 23.1099 16.55V18.17C23.1099 18.25 23.1499 18.33 23.2299 18.41C23.3099 18.49 23.3899 18.53 23.4699 18.53ZM23.4699 22.19C23.5499 22.19 23.6299 22.16 23.7099 22.1C23.7899 22.04 23.8299 21.95 23.8299 21.83V20.21C23.8299 20.09 23.7899 20 23.7099 19.94C23.6299 19.88 23.5499 19.85 23.4699 19.85C23.3899 19.85 23.3099 19.88 23.2299 19.94C23.1499 20 23.1099 20.09 23.1099 20.21V21.83C23.1099 21.95 23.1499 22.04 23.2299 22.1C23.3099 22.16 23.3899 22.19 23.4699 22.19ZM27.5499 23.51H27.8499C27.9299 23.51 27.9999 23.48 28.0599 23.42C28.1199 23.36 28.1499 23.28 28.1499 23.18C28.1499 23.08 28.1199 23 28.0599 22.94C27.9999 22.88 27.9299 22.85 27.8499 22.85H27.5499C27.4299 22.85 27.3399 22.88 27.2799 22.94C27.2199 23 27.1899 23.08 27.1899 23.18C27.1899 23.28 27.2199 23.36 27.2799 23.42C27.3399 23.48 27.4299 23.51 27.5499 23.51ZM27.5499 21.53H27.8499C27.9299 21.53 27.9999 21.5 28.0599 21.44C28.1199 21.38 28.1499 21.3 28.1499 21.2C28.1499 21.1 28.1199 21.01 28.0599 20.93C27.9999 20.85 27.9299 20.81 27.8499 20.81H27.5499C27.4299 20.81 27.3399 20.85 27.2799 20.93C27.2199 21.01 27.1899 21.1 27.1899 21.2C27.1899 21.3 27.2199 21.38 27.2799 21.44C27.3399 21.5 27.4299 21.53 27.5499 21.53ZM27.5499 25.49H27.8499C27.9299 25.49 27.9999 25.45 28.0599 25.37C28.1199 25.29 28.1499 25.21 28.1499 25.13C28.1499 25.05 28.1199 24.97 28.0599 24.89C27.9999 24.81 27.9299 24.77 27.8499 24.77H27.5499C27.4299 24.77 27.3399 24.81 27.2799 24.89C27.2199 24.97 27.1899 25.05 27.1899 25.13C27.1899 25.21 27.2199 25.29 27.2799 25.37C27.3399 25.45 27.4299 25.49 27.5499 25.49ZM16.8699 19.55H17.1699C17.2499 19.55 17.3199 19.52 17.3799 19.46C17.4399 19.4 17.4699 19.32 17.4699 19.22C17.4699 19.12 17.4399 19.04 17.3799 18.98C17.3199 18.92 17.2499 18.89 17.1699 18.89H16.8699C16.7499 18.89 16.6599 18.92 16.5999 18.98C16.5399 19.04 16.5099 19.12 16.5099 19.22C16.5099 19.32 16.5399 19.4 16.5999 19.46C16.6599 19.52 16.7499 19.55 16.8699 19.55ZM16.8699 17.57H17.1699C17.2499 17.57 17.3199 17.54 17.3799 17.48C17.4399 17.42 17.4699 17.34 17.4699 17.24C17.4699 17.14 17.4399 17.06 17.3799 17C17.3199 16.94 17.2499 16.91 17.1699 16.91H16.8699C16.7499 16.91 16.6599 16.94 16.5999 17C16.5399 17.06 16.5099 17.14 16.5099 17.24C16.5099 17.34 16.5399 17.42 16.5999 17.48C16.6599 17.54 16.7499 17.57 16.8699 17.57ZM16.8699 21.53H17.1699C17.2499 21.53 17.3199 21.5 17.3799 21.44C17.4399 21.38 17.4699 21.3 17.4699 21.2C17.4699 21.1 17.4399 21.01 17.3799 20.93C17.3199 20.85 17.2499 20.81 17.1699 20.81H16.8699C16.7099 20.81 16.5999 20.87 16.5399 20.99C16.4799 21.11 16.4799 21.23 16.5399 21.35C16.5999 21.47 16.7099 21.53 16.8699 21.53ZM29.4699 17.99H26.2299V10.55C26.2299 10.43 26.1999 10.34 26.1399 10.28C26.0799 10.22 25.9899 10.19 25.8699 10.19H18.6099C18.5299 10.19 18.4499 10.23 18.3699 10.31C18.2899 10.39 18.2499 10.47 18.2499 10.55V14.87H15.3699C15.2899 14.87 15.2099 14.9 15.1299 14.96C15.0499 15.02 15.0099 15.11 15.0099 15.23V19.49C15.0099 19.61 15.0499 19.7 15.1299 19.76C15.2099 19.82 15.2999 19.85 15.3999 19.85C15.4999 19.85 15.5799 19.82 15.6399 19.76C15.6999 19.7 15.7299 19.61 15.7299 19.49V15.53H18.2499V27.11H15.7299C15.6099 27.11 15.5199 27.15 15.4599 27.23C15.3999 27.31 15.3699 27.4 15.3699 27.5C15.3699 27.6 15.3999 27.68 15.4599 27.74C15.5199 27.8 15.6099 27.83 15.7299 27.83H28.2699C28.7099 27.83 29.0799 27.68 29.3799 27.38C29.6799 27.08 29.8299 26.73 29.8299 26.33V18.35C29.8299 18.27 29.7899 18.19 29.7099 18.11C29.6299 18.03 29.5499 17.99 29.4699 17.99ZM21.3699 27.11V24.41H23.1099V27.11H21.3699ZM25.5099 27.11H23.8299V24.05C23.8299 23.93 23.7899 23.84 23.7099 23.78C23.6299 23.72 23.5499 23.69 23.4699 23.69H21.0099C20.9299 23.69 20.8499 23.72 20.7699 23.78C20.6899 23.84 20.6499 23.93 20.6499 24.05V27.11H18.9699V10.85H25.5099V27.11ZM29.1099 26.33C29.1099 26.53 29.0299 26.72 28.8699 26.9C28.7099 27.08 28.5099 27.17 28.2699 27.17H26.2299V18.71H29.1099V26.33ZM16.3299 23.03C16.3299 22.43 16.0299 21.85 15.4299 21.29C15.1099 20.97 14.7699 20.71 14.4099 20.51C14.3299 20.47 14.2299 20.47 14.1099 20.51C13.7899 20.71 13.4499 20.97 13.0899 21.29C12.4899 21.85 12.1899 22.44 12.1899 23.06C12.1899 23.68 12.3499 24.23 12.6699 24.71C12.9899 25.19 13.4099 25.47 13.9299 25.55V27.47C13.9299 27.59 13.9599 27.68 14.0199 27.74C14.0799 27.8 14.1599 27.83 14.2599 27.83C14.3599 27.83 14.4399 27.8 14.4999 27.74C14.5599 27.68 14.5899 27.59 14.5899 27.47V25.55C15.1099 25.47 15.5299 25.19 15.8499 24.71C16.1699 24.23 16.3299 23.67 16.3299 23.03ZM12.8499 23.03C12.8499 22.71 13.0299 22.35 13.3899 21.95C13.6299 21.71 13.9299 21.47 14.2899 21.23C14.6099 21.47 14.8899 21.71 15.1299 21.95C15.4899 22.35 15.6699 22.71 15.6699 23.03C15.6699 23.47 15.5699 23.86 15.3699 24.2C15.1699 24.54 14.9099 24.75 14.5899 24.83V24.05C14.5899 23.93 14.5599 23.84 14.4999 23.78C14.4399 23.72 14.3599 23.69 14.2599 23.69C14.1599 23.69 14.0799 23.72 14.0199 23.78C13.9599 23.84 13.9299 23.93 13.9299 24.05V24.83C13.6099 24.75 13.3499 24.54 13.1499 24.2C12.9499 23.86 12.8499 23.47 12.8499 23.03Z" fill="#1A1A1A"/>
</g>
<defs>
<clipPath id="clip0_2_498">
<rect width="18" height="18" fill="white" transform="matrix(1 0 0 -1 11.95 27.89)"/>
</clipPath>
</defs>
</svg>
