<svg width="20" height="14" viewBox="0 0 20 14" fill="none" xmlns="http://www.w3.org/2000/svg">
<path d="M17.5333 3.24668H8.73333C8.28889 3.24668 7.86667 3.38001 7.46667 3.64668C7.37778 2.98001 7.1 2.43557 6.63333 2.01335C6.16667 1.59112 5.62222 1.38001 5 1.38001C4.51111 1.38001 4.06667 1.49112 3.66667 1.71335V0.713346C3.66667 0.535568 3.61111 0.391124 3.5 0.280012C3.38889 0.168901 3.24444 0.113346 3.06667 0.113346H0.6C0.422222 0.113346 0.277778 0.168901 0.166667 0.280012C0.0555556 0.391124 0 0.535568 0 0.713346V13.2467C0 13.4245 0.0555556 13.5689 0.166667 13.68C0.277778 13.7911 0.422222 13.8467 0.6 13.8467H3.06667C3.24444 13.8467 3.38889 13.7911 3.5 13.68C3.61111 13.5689 3.66667 13.4245 3.66667 13.2467V11.3133H16.3333V13.2467C16.3333 13.4245 16.3889 13.5689 16.5 13.68C16.6111 13.7911 16.7556 13.8467 16.9333 13.8467H19.4C19.5778 13.8467 19.7222 13.7911 19.8333 13.68C19.9444 13.5689 20 13.4245 20 13.2467V5.71335C20 5.04668 19.7556 4.4689 19.2667 3.98001C18.7778 3.49112 18.2 3.24668 17.5333 3.24668ZM5 2.51335C5.35556 2.51335 5.65556 2.64668 5.9 2.91335C6.14444 3.18001 6.26667 3.49112 6.26667 3.84668C6.26667 4.20224 6.14444 4.50223 5.9 4.74668C5.65556 4.99112 5.35556 5.11335 5 5.11335C4.64444 5.11335 4.33333 4.99112 4.06667 4.74668C3.8 4.50223 3.66667 4.20224 3.66667 3.84668C3.66667 3.49112 3.8 3.18001 4.06667 2.91335C4.33333 2.64668 4.64444 2.51335 5 2.51335ZM3.66667 5.91335C4.06667 6.18001 4.5 6.31335 4.96667 6.31335C5.43333 6.31335 5.86667 6.18001 6.26667 5.91335V7.64668H3.66667V5.91335ZM18.8 12.6467H17.4667V10.7133C17.4667 10.58 17.4111 10.4578 17.3 10.3467C17.1889 10.2356 17.0667 10.18 16.9333 10.18H3.06667C2.93333 10.18 2.81111 10.2356 2.7 10.3467C2.58889 10.4578 2.53333 10.58 2.53333 10.7133V12.6467H1.2V1.31335H2.53333V8.24668C2.53333 8.38001 2.58889 8.51335 2.7 8.64668C2.81111 8.78001 2.93333 8.84668 3.06667 8.84668H18.8V12.6467ZM18.8 7.64668H7.46667V5.71335C7.46667 5.35779 7.58889 5.05779 7.83333 4.81335C8.07778 4.5689 8.37778 4.44668 8.73333 4.44668H17.5333C17.8889 4.44668 18.1889 4.5689 18.4333 4.81335C18.6778 5.05779 18.8 5.35779 18.8 5.71335V7.64668Z" fill="#1A1A1A"/>
</svg>
