<svg width="58" height="57" viewBox="0 0 58 57" fill="none" xmlns="http://www.w3.org/2000/svg">
<path d="M16.79 41.8899C16.79 41.3566 16.99 40.8899 17.39 40.4899C17.79 40.0899 18.19 39.8899 18.59 39.8899H39.39C39.79 39.8899 40.19 40.0899 40.59 40.4899C40.99 40.8899 41.19 41.3566 41.19 41.8899C41.19 42.4232 40.99 42.8566 40.59 43.1899C40.19 43.5232 39.79 43.6899 39.39 43.6899H18.59C18.19 43.6899 17.79 43.5232 17.39 43.1899C16.99 42.8566 16.79 42.4232 16.79 41.8899ZM36.99 3.28989C34.7234 1.42323 32.0567 0.489891 28.99 0.489891C25.9234 0.489891 23.2567 1.42323 20.99 3.28989L5.99004 14.8899C4.39004 16.2232 3.12337 17.7566 2.19004 19.4899C1.25671 21.2232 0.790039 23.0899 0.790039 25.0899V43.8899C0.790039 46.1566 1.39004 48.2899 2.59004 50.2899C3.79004 52.2899 5.39004 53.8899 7.39004 55.0899C9.39004 56.2899 11.59 56.8899 13.99 56.8899H43.99C46.39 56.8899 48.59 56.2899 50.59 55.0899C52.59 53.8899 54.19 52.2899 55.39 50.2899C56.59 48.2899 57.19 46.1566 57.19 43.8899V25.0899C57.19 23.0899 56.7234 21.2232 55.79 19.4899C54.8567 17.7566 53.59 16.2232 51.99 14.8899L36.99 3.28989ZM23.19 6.28989C24.9234 4.95656 26.8567 4.28989 28.99 4.28989C31.1234 4.28989 33.0567 4.95656 34.79 6.28989L49.79 17.8899C50.8567 18.8232 51.7234 19.9232 52.39 21.1899C53.0567 22.4566 53.39 23.7566 53.39 25.0899V43.8899C53.39 46.4232 52.4567 48.5899 50.59 50.3899C48.7234 52.1899 46.5234 53.0899 43.99 53.0899H13.99C11.4567 53.0899 9.25671 52.1899 7.39004 50.3899C5.52337 48.5899 4.59004 46.4232 4.59004 43.8899V25.0899C4.59004 23.7566 4.92337 22.4566 5.59004 21.1899C6.25671 19.9232 7.12337 18.8232 8.19004 17.8899L23.19 6.28989Z" fill="#1A1A1A"/>
</svg>
