<svg width="50" height="46" viewBox="0 0 50 46" fill="none" xmlns="http://www.w3.org/2000/svg">
<path d="M24.74 42.7468H9.23997C8.35108 42.7468 7.62886 42.4413 7.0733 41.8302C6.51775 41.2191 6.23997 40.5246 6.23997 39.7468V18.9135L21.9066 5.08017C22.6844 4.41351 23.6289 4.08017 24.74 4.08017C25.8511 4.08017 26.7955 4.41351 27.5733 5.08017L47.4066 22.5802C47.6289 22.8024 47.9066 22.8857 48.24 22.8302C48.5733 22.7746 48.8511 22.6357 49.0733 22.4135C49.2955 22.1913 49.3789 21.9135 49.3233 21.5802C49.2677 21.2468 49.1289 20.9691 48.9066 20.7468L45.5733 17.9135V6.08017C45.5733 4.41351 44.9622 2.96906 43.74 1.74684C42.5177 0.524616 41.0733 -0.0587158 39.4066 -0.00315857C37.74 0.0523949 36.3233 0.663506 35.1566 1.83017C33.99 2.99684 33.3511 4.41351 33.24 6.08017V7.08017L29.0733 3.41351C27.8511 2.30239 26.4066 1.74684 24.74 1.74684C23.0733 1.74684 21.6289 2.30239 20.4066 3.41351L0.573303 20.7468C0.23997 20.9691 0.0733032 21.2468 0.0733032 21.5802C0.0733032 21.9135 0.184414 22.1913 0.406637 22.4135C0.628859 22.6357 0.906637 22.7746 1.23997 22.8302C1.5733 22.8857 1.85108 22.8024 2.0733 22.5802L3.90664 21.0802V39.7468C3.90664 41.1913 4.43441 42.4413 5.48997 43.4968C6.54553 44.5524 7.79553 45.0802 9.23997 45.0802H24.74C25.0733 45.0802 25.3511 44.9691 25.5733 44.7468C25.7955 44.5246 25.9066 44.2468 25.9066 43.9135C25.9066 43.5802 25.7955 43.3024 25.5733 43.0802C25.3511 42.858 25.0733 42.7468 24.74 42.7468ZM35.5733 6.08017C35.6844 4.96906 36.1011 4.05239 36.8233 3.33017C37.5455 2.60795 38.4344 2.27462 39.49 2.33017C40.5455 2.38573 41.4344 2.77462 42.1566 3.49684C42.8789 4.21906 43.24 5.08017 43.24 6.08017V15.7468L35.5733 9.08017V6.08017ZM24.74 11.7468C23.1844 11.7468 21.8511 12.3024 20.74 13.4135C19.6289 14.5246 19.0733 15.858 19.0733 17.4135C19.0733 18.9691 19.6289 20.3024 20.74 21.4135C21.8511 22.5246 23.1844 23.0802 24.74 23.0802C26.2955 23.0802 27.6289 22.5246 28.74 21.4135C29.8511 20.3024 30.4066 18.9691 30.4066 17.4135C30.4066 15.858 29.8511 14.5246 28.74 13.4135C27.6289 12.3024 26.2955 11.7468 24.74 11.7468ZM28.0733 17.4135C28.0733 18.4135 27.74 19.2191 27.0733 19.8302C26.4066 20.4413 25.6289 20.7468 24.74 20.7468C23.8511 20.7468 23.0733 20.4413 22.4066 19.8302C21.74 19.2191 21.4066 18.4413 21.4066 17.4968C21.4066 16.5524 21.74 15.7468 22.4066 15.0802C23.0733 14.4135 23.8511 14.0802 24.74 14.0802C25.6289 14.0802 26.4066 14.4135 27.0733 15.0802C27.74 15.7468 28.0733 16.5246 28.0733 17.4135ZM49.0733 43.2468L45.0733 39.0802C46.0733 37.6357 46.5733 36.0246 46.5733 34.2468C46.5733 32.0246 45.7677 30.1357 44.1566 28.5802C42.5455 27.0246 40.6289 26.2468 38.4066 26.2468C36.1844 26.2468 34.2677 27.0246 32.6566 28.5802C31.0455 30.1357 30.24 32.0524 30.24 34.3302C30.24 36.608 31.0455 38.5246 32.6566 40.0802C34.2677 41.6357 36.1844 42.4135 38.4066 42.4135C40.2955 42.4135 41.9622 41.858 43.4066 40.7468L47.24 44.7468C47.4622 44.9691 47.74 45.108 48.0733 45.1635C48.4066 45.2191 48.7122 45.1357 48.99 44.9135C49.2677 44.6913 49.4066 44.4135 49.4066 44.0802C49.4066 43.7468 49.2955 43.4691 49.0733 43.2468ZM38.4066 40.0802C36.8511 40.0802 35.49 39.5246 34.3233 38.4135C33.1566 37.3024 32.5733 35.9413 32.5733 34.3302C32.5733 32.7191 33.1566 31.358 34.3233 30.2468C35.49 29.1357 36.8789 28.5802 38.49 28.5802C40.1011 28.5802 41.4622 29.1357 42.5733 30.2468C43.6844 31.358 44.24 32.7191 44.24 34.3302C44.24 35.9413 43.6844 37.3024 42.5733 38.4135C41.4622 39.5246 40.0733 40.0802 38.4066 40.0802Z" fill="#1A1A1A"/>
</svg>
