<svg width="17" height="12" viewBox="0 0 17 12" fill="none" xmlns="http://www.w3.org/2000/svg">
<path d="M11.0696 0.610015C10.3896 0.610015 9.78965 0.830015 9.26965 1.27001C8.74965 1.71002 8.42965 2.25002 8.30965 2.89001H0.929648C0.769648 2.89001 0.639648 2.94001 0.539648 3.04002C0.439648 3.14001 0.389648 3.27001 0.389648 3.43001C0.389648 3.59001 0.439648 3.73001 0.539648 3.85001C0.639648 3.97002 0.769648 4.03001 0.929648 4.03001H8.30965C8.42965 4.67001 8.74965 5.20001 9.26965 5.62001C9.78965 6.04001 10.3896 6.25001 11.0696 6.25001C11.7496 6.25001 12.3396 6.04001 12.8396 5.62001C13.3396 5.20001 13.6696 4.67001 13.8296 4.03001H15.5696C15.7296 4.03001 15.8596 3.97002 15.9596 3.85001C16.0596 3.73001 16.1096 3.59001 16.1096 3.43001C16.1096 3.27001 16.0596 3.14001 15.9596 3.04002C15.8596 2.94001 15.7296 2.89001 15.5696 2.89001H13.8296C13.6696 2.25002 13.3396 1.71002 12.8396 1.27001C12.3396 0.830015 11.7496 0.610015 11.0696 0.610015ZM11.0696 1.75002C11.5496 1.75002 11.9496 1.92002 12.2696 2.26001C12.5896 2.60001 12.7496 3.00002 12.7496 3.46002C12.7496 3.92001 12.5896 4.31001 12.2696 4.63001C11.9496 4.95001 11.5496 5.11001 11.0696 5.11001C10.5896 5.11001 10.1896 4.95001 9.86965 4.63001C9.54965 4.31001 9.38965 3.92001 9.38965 3.46002C9.38965 3.00002 9.54965 2.60001 9.86965 2.26001C10.1896 1.92002 10.5896 1.75002 11.0696 1.75002ZM5.42965 6.25001C4.74965 6.25001 4.15965 6.46001 3.65965 6.88001C3.15965 7.30001 2.82965 7.85001 2.66965 8.53001H0.929648C0.769648 8.53001 0.639648 8.58001 0.539648 8.68001C0.439648 8.78001 0.389648 8.91001 0.389648 9.07001C0.389648 9.23001 0.439648 9.36001 0.539648 9.46001C0.639648 9.56001 0.769648 9.61001 0.929648 9.61001H2.66965C2.82965 10.29 3.15965 10.84 3.65965 11.26C4.15965 11.68 4.74965 11.89 5.42965 11.89C6.10965 11.89 6.70965 11.68 7.22965 11.26C7.74965 10.84 8.06965 10.29 8.18965 9.61001H15.5696C15.7296 9.61001 15.8596 9.56001 15.9596 9.46001C16.0596 9.36001 16.1096 9.23001 16.1096 9.07001C16.1096 8.91001 16.0596 8.78001 15.9596 8.68001C15.8596 8.58001 15.7296 8.53001 15.5696 8.53001H8.18965C8.06965 7.85001 7.74965 7.30001 7.22965 6.88001C6.70965 6.46001 6.10965 6.25001 5.42965 6.25001ZM5.42965 7.39001C5.90965 7.39001 6.30965 7.55001 6.62965 7.87001C6.94965 8.19001 7.10965 8.59001 7.10965 9.07001C7.10965 9.55001 6.94965 9.95001 6.62965 10.27C6.30965 10.59 5.90965 10.75 5.42965 10.75C4.94965 10.75 4.54965 10.59 4.22965 10.27C3.90965 9.95001 3.74965 9.55001 3.74965 9.07001C3.74965 8.59001 3.90965 8.19001 4.22965 7.87001C4.54965 7.55001 4.94965 7.39001 5.42965 7.39001Z" fill="white"/>
</svg>
