<svg width="21" height="21" viewBox="0 0 21 21" fill="none" xmlns="http://www.w3.org/2000/svg">
<path d="M15.35 20.75C13.5277 20.75 11.75 20.4167 10.0166 19.75C8.1944 19.0389 6.58328 17.9722 5.18328 16.55C3.78328 15.1278 2.70551 13.5056 1.94995 11.6833C1.28328 9.95 0.949951 8.17222 0.949951 6.35C0.949951 5.32778 1.20551 4.39444 1.71662 3.55C2.22773 2.70555 2.90551 2.02778 3.74995 1.51667C4.5944 1.00555 5.52773 0.749998 6.54995 0.749998C6.81662 0.749998 6.9944 0.883333 7.08328 1.15L9.61662 7.41667C9.66106 7.55 9.64995 7.69444 9.58329 7.85C9.51662 8.00556 9.41662 8.10555 9.28329 8.15L6.54995 9.28333C6.5944 10.3056 6.88329 11.2611 7.41662 12.15C7.94995 13.0389 8.66106 13.75 9.54995 14.2833C10.4388 14.8167 11.3944 15.1056 12.4166 15.15L13.55 12.4167C13.5944 12.2833 13.6944 12.1833 13.85 12.1167C14.0055 12.05 14.15 12.0389 14.2833 12.0833L20.55 14.6167C20.8166 14.7056 20.95 14.8833 20.95 15.15C20.95 16.1722 20.6944 17.1056 20.1833 17.95C19.6722 18.7944 18.9944 19.4722 18.15 19.9833C17.3055 20.4944 16.3722 20.75 15.35 20.75ZM6.14995 1.95C5.03884 2.03889 4.0944 2.50555 3.31662 3.35C2.53884 4.19444 2.14995 5.19444 2.14995 6.35C2.14995 8.12778 2.48328 9.81667 3.14995 11.4167C3.81662 13.0167 4.77217 14.4389 6.01662 15.6833C7.26106 16.9278 8.68328 17.8833 10.2833 18.55C11.8833 19.2167 13.5722 19.55 15.35 19.55C16.5055 19.55 17.5055 19.1611 18.35 18.3833C19.1944 17.6056 19.6611 16.6611 19.75 15.55L14.4166 13.4167L13.35 16.0167C13.2611 16.2389 13.0833 16.35 12.8166 16.35C11.4833 16.35 10.2388 16.0167 9.08329 15.35C7.92773 14.6833 7.01662 13.7722 6.34995 12.6167C5.68328 11.4611 5.34995 10.2167 5.34995 8.88333C5.34995 8.61667 5.46106 8.43889 5.68328 8.35L8.28328 7.28333L6.14995 1.95Z" fill="white"/>
</svg>
