<svg width="40" height="41" viewBox="0 0 40 41" fill="none" xmlns="http://www.w3.org/2000/svg">
<rect x="0.5" y="1.08008" width="39" height="39" rx="19.5" stroke="#E9E9E9"/>
<g clip-path="url(#clip0_2_1693)">
<path d="M22.9333 12.6867C21.8667 12.6867 20.8889 13.0067 20 13.6467C19.1111 13.0067 18.1333 12.6867 17.0667 12.6867C16.1422 12.6867 15.2978 12.9178 14.5333 13.3801C13.7689 13.8423 13.1556 14.4556 12.6933 15.2201C12.2311 15.9845 12 16.8289 12 17.7534C12 19.6378 13.3511 21.9667 16.0533 24.7401C16.8711 25.5934 17.7778 26.4467 18.7733 27.3001C19.2711 27.7267 19.6978 28.0645 20.0533 28.3134C20.16 28.4201 20.2844 28.4734 20.4267 28.4734C20.5689 28.4734 20.6933 28.4201 20.8 28.3134C21.4044 27.7801 22.0622 27.1401 22.7733 26.3934C24.1956 24.9712 25.3333 23.6201 26.1867 22.3401C27.3956 20.5623 28 19.0334 28 17.7534C28 16.8289 27.7689 15.9845 27.3067 15.2201C26.8444 14.4556 26.2311 13.8423 25.4667 13.3801C24.7022 12.9178 23.8578 12.6867 22.9333 12.6867ZM20.3733 27.0334C18.7022 25.7178 17.2267 24.3134 15.9467 22.8201C14.1333 20.7223 13.2267 19.0334 13.2267 17.7534C13.2267 17.0778 13.3956 16.4467 13.7333 15.8601C14.0711 15.2734 14.5333 14.8023 15.12 14.4467C15.7067 14.0912 16.3556 13.9134 17.0667 13.9134C18.0267 13.9134 18.8622 14.2334 19.5733 14.8734H19.6267C19.7333 14.9801 19.8667 15.0334 20.0267 15.0334C20.1867 15.0334 20.32 14.9801 20.4267 14.8734C21.1378 14.2334 21.9733 13.9134 22.9333 13.9134C23.6444 13.9134 24.2933 14.0912 24.88 14.4467C25.4667 14.8023 25.9289 15.2734 26.2667 15.8601C26.6044 16.4467 26.7733 17.0778 26.7733 17.7534C26.7733 19.0334 25.9733 20.7223 24.3733 22.8201C23.2 24.2778 21.8667 25.6823 20.3733 27.0334Z" fill="#1A1A1A"/>
</g>
<defs>
<clipPath id="clip0_2_1693">
<rect width="16" height="16" fill="white" transform="matrix(1 0 0 -1 12 28.5801)"/>
</clipPath>
</defs>
</svg>
