<svg width="62" height="62" viewBox="0 0 62 62" fill="none" xmlns="http://www.w3.org/2000/svg">
<g clip-path="url(#clip0_2_1466)">
<g clip-path="url(#clip1_2_1466)">
<path d="M31 61.7002C47.5685 61.7002 61 48.2687 61 31.7002C61 15.1317 47.5685 1.7002 31 1.7002C14.4315 1.7002 1 15.1317 1 31.7002C1 48.2687 14.4315 61.7002 31 61.7002Z" fill="#254EF0"/>
<path fill-rule="evenodd" clip-rule="evenodd" d="M44.42 20.8209C44.51 20.2284 44.2575 19.6347 43.7687 19.2859C43.28 18.9384 42.6362 18.8947 42.105 19.1734C37.8537 21.4059 22.9825 29.2134 18.415 31.6109C17.8512 31.9059 17.5187 32.5084 17.5675 33.1422C17.6162 33.7759 18.0362 34.3209 18.6387 34.5272C20.4175 35.1359 22.5912 35.8822 26 37.0509L39.75 24.1997L28.6225 37.9497C32.2575 39.1959 37.9412 41.1447 39.3675 41.6334C39.8137 41.7872 40.3062 41.7334 40.71 41.4897C41.1137 41.2447 41.3875 40.8334 41.4587 40.3659L44.42 20.8209Z" fill="white"/>
<path fill-rule="evenodd" clip-rule="evenodd" d="M27.04 38.7285V42.816C27.04 43.4435 27.4088 44.0123 27.98 44.2685C28.5525 44.526 29.2213 44.4235 29.69 44.006L33.2375 40.8535L27.04 38.7285Z" fill="white"/>
</g>
</g>
<defs>
<clipPath id="clip0_2_1466">
<rect width="61" height="61" fill="white" transform="translate(0.5 0.799805)"/>
</clipPath>
<clipPath id="clip1_2_1466">
<rect width="61" height="61" fill="white" transform="translate(0.5 0.799805)"/>
</clipPath>
</defs>
</svg>
