<svg width="81" height="81" viewBox="0 0 81 81" fill="none" xmlns="http://www.w3.org/2000/svg">
<rect x="0.97998" y="0.199951" width="80" height="80" rx="40" fill="#E7C873"/>
<g clip-path="url(#clip0_2_2224)">
<path d="M36.78 41.6334C36.78 41.8667 36.8578 42.0417 37.0133 42.1584C37.1689 42.275 37.3244 42.3334 37.48 42.3334C37.6355 42.3334 37.7911 42.275 37.9466 42.1584C38.1022 42.0417 38.18 41.8861 38.18 41.6917C38.18 41.4973 38.1022 41.3417 37.9466 41.225C37.7911 41.1084 37.6355 41.05 37.48 41.05C37.3244 41.05 37.1689 41.1084 37.0133 41.225C36.8578 41.3417 36.78 41.4778 36.78 41.6334ZM40.28 41.6334C40.28 41.8667 40.3578 42.0417 40.5133 42.1584C40.6689 42.275 40.8244 42.3334 40.98 42.3334C41.1355 42.3334 41.2911 42.275 41.4466 42.1584C41.6022 42.0417 41.68 41.8861 41.68 41.6917C41.68 41.4973 41.6022 41.3417 41.4466 41.225C41.2911 41.1084 41.1355 41.05 40.98 41.05C40.8244 41.05 40.6689 41.1084 40.5133 41.225C40.3578 41.3417 40.28 41.4778 40.28 41.6334ZM43.78 41.6334C43.78 41.8667 43.8578 42.0417 44.0133 42.1584C44.1689 42.275 44.3244 42.3334 44.48 42.3334C44.6355 42.3334 44.7911 42.275 44.9466 42.1584C45.1022 42.0417 45.18 41.8861 45.18 41.6917C45.18 41.4973 45.1022 41.3417 44.9466 41.225C44.7911 41.1084 44.6355 41.05 44.48 41.05C44.3244 41.05 44.1689 41.1084 44.0133 41.225C43.8578 41.3417 43.78 41.4778 43.78 41.6334ZM30.0133 42.3334C29.08 42.3334 28.2244 42.0806 27.4466 41.575C26.6689 41.0695 26.105 40.3889 25.755 39.5334C25.405 38.6778 25.3272 37.7834 25.5216 36.85C25.7161 35.9167 26.1439 35.1195 26.805 34.4584C27.4661 33.7973 28.2439 33.3889 29.1383 33.2334C30.0328 33.0778 30.9078 33.175 31.7633 33.525C32.6189 33.875 33.3189 34.4389 33.8633 35.2167C34.4078 35.9945 34.68 36.85 34.68 37.7834C34.68 39.0278 34.2328 40.0973 33.3383 40.9917C32.4439 41.8861 31.3355 42.3334 30.0133 42.3334ZM30.0133 34.5167C29.3911 34.5167 28.8078 34.6917 28.2633 35.0417C27.7189 35.3917 27.3105 35.8778 27.0383 36.5C26.7661 37.1223 26.7078 37.7639 26.8633 38.425C27.0189 39.0861 27.33 39.6306 27.7966 40.0584C28.2633 40.4861 28.8078 40.7778 29.43 40.9334C30.0522 41.0889 30.6744 41.0306 31.2966 40.7584C31.9189 40.4861 32.405 40.0778 32.755 39.5334C33.105 38.9889 33.28 38.4056 33.28 37.7834C33.28 36.85 32.9689 36.0723 32.3466 35.45C31.7244 34.8278 30.9466 34.5167 30.0133 34.5167ZM35.9633 50.6167H24.18C23.9466 50.6167 23.7716 50.5584 23.655 50.4417C23.5383 50.325 23.48 50.15 23.48 49.9167V47.5834C23.48 45.7945 24.1216 44.2584 25.405 42.975C26.6883 41.6917 28.2439 41.05 30.0716 41.05C31.8994 41.05 33.4355 41.6917 34.68 42.975C35.9244 44.2584 36.5855 45.7945 36.6633 47.5834V49.9167C36.6633 50.15 36.5855 50.325 36.43 50.4417C36.2744 50.5584 36.1189 50.6167 35.9633 50.6167ZM24.88 49.2167H35.2633V47.5834C35.2633 46.1834 34.7578 44.9778 33.7466 43.9667C32.7355 42.9556 31.5105 42.45 30.0716 42.45C28.6328 42.45 27.4078 42.9556 26.3966 43.9667C25.3855 44.9778 24.88 46.1834 24.88 47.5834V49.2167ZM51.9466 42.3334C51.0133 42.3334 50.1578 42.0806 49.38 41.575C48.6022 41.0695 48.0383 40.3889 47.6883 39.5334C47.3383 38.6778 47.2411 37.7834 47.3966 36.85C47.5522 35.9167 47.9605 35.1195 48.6216 34.4584C49.2828 33.7973 50.08 33.3889 51.0133 33.2334C51.9466 33.0778 52.8411 33.175 53.6966 33.525C54.5522 33.875 55.2328 34.4389 55.7383 35.2167C56.2439 35.9945 56.4966 36.85 56.4966 37.7834C56.4966 39.0278 56.0494 40.0973 55.155 40.9917C54.2605 41.8861 53.1911 42.3334 51.9466 42.3334ZM51.9466 34.5167C51.2466 34.5167 50.6244 34.6917 50.08 35.0417C49.5355 35.3917 49.1466 35.8778 48.9133 36.5C48.68 37.1223 48.6216 37.7639 48.7383 38.425C48.855 39.0861 49.1466 39.6306 49.6133 40.0584C50.08 40.4861 50.6439 40.7778 51.305 40.9334C51.9661 41.0889 52.5883 41.0306 53.1716 40.7584C53.755 40.4861 54.2216 40.0778 54.5716 39.5334C54.9216 38.9889 55.0966 38.4056 55.0966 37.7834C55.0966 36.85 54.7855 36.0723 54.1633 35.45C53.5411 34.8278 52.8022 34.5167 51.9466 34.5167ZM57.78 50.6167H45.9966C45.8411 50.6167 45.6855 50.5584 45.53 50.4417C45.3744 50.325 45.2966 50.15 45.2966 49.9167V47.5834C45.3744 45.7945 46.0355 44.2584 47.28 42.975C48.5244 41.6917 50.0605 41.05 51.8883 41.05C53.7161 41.05 55.2716 41.6917 56.555 42.975C57.8383 44.2584 58.48 45.7945 58.48 47.5834V49.9167C58.48 50.15 58.4216 50.325 58.305 50.4417C58.1883 50.5584 58.0133 50.6167 57.78 50.6167ZM46.6966 49.2167H57.08V47.5834C57.08 46.1834 56.5744 44.9778 55.5633 43.9667C54.5522 42.9556 53.3272 42.45 51.8883 42.45C50.4494 42.45 49.2244 42.9556 48.2133 43.9667C47.2022 44.9778 46.6966 46.1834 46.6966 47.5834V49.2167ZM37.83 37.55C37.6744 37.55 37.5189 37.4917 37.3633 37.375C37.2078 37.2584 37.13 37.1223 37.13 36.9667V34.8667H36.5466C35.9244 34.8667 35.38 34.6528 34.9133 34.225C34.4466 33.7973 34.2133 33.2723 34.2133 32.65V26C34.2133 25.3778 34.4466 24.8528 34.9133 24.425C35.38 23.9973 35.9244 23.7834 36.5466 23.7834H45.2966C45.9189 23.7834 46.4439 23.9973 46.8716 24.425C47.2994 24.8528 47.5133 25.3778 47.5133 26V32.65C47.5133 33.2723 47.2994 33.7973 46.8716 34.225C46.4439 34.6528 45.9189 34.8667 45.2966 34.8667H40.8633L38.2966 37.4334C38.2189 37.5889 38.0633 37.6278 37.83 37.55ZM36.5466 25.1834C36.3133 25.1834 36.0994 25.2611 35.905 25.4167C35.7105 25.5723 35.6133 25.7667 35.6133 26V32.65C35.6133 32.8834 35.7105 33.0973 35.905 33.2917C36.0994 33.4861 36.3133 33.5834 36.5466 33.5834H37.83C38.0633 33.5834 38.2383 33.6417 38.355 33.7584C38.4716 33.875 38.53 34.0111 38.53 34.1667V35.2167L40.0466 33.7C40.2022 33.6223 40.3578 33.5834 40.5133 33.5834H45.2966C45.53 33.5834 45.7439 33.4861 45.9383 33.2917C46.1328 33.0973 46.23 32.8834 46.23 32.65V26C46.23 25.7667 46.1328 25.5723 45.9383 25.4167C45.7439 25.2611 45.53 25.1834 45.2966 25.1834H36.5466Z" fill="#1A1A1A"/>
</g>
<defs>
<clipPath id="clip0_2_2224">
<rect width="35" height="35" fill="white" transform="matrix(1 0 0 -1 23.48 54.7)"/>
</clipPath>
</defs>
</svg>
