<svg width="60" height="61" viewBox="0 0 60 61" fill="none" xmlns="http://www.w3.org/2000/svg">
<rect y="0.550049" width="60" height="60" rx="12" fill="#FFF8F6"/>
<g clip-path="url(#clip0_2_1634)">
<path d="M20.1202 30.11C19.9469 30.11 19.8169 30.1534 19.7302 30.24C19.6435 30.3267 19.6002 30.4567 19.6002 30.63V40.4234C19.6002 40.5967 19.6435 40.7411 19.7302 40.8567C19.8169 40.9723 19.9469 41.03 20.1202 41.03H39.6202C39.7358 41.03 39.8513 40.9723 39.9669 40.8567C40.0824 40.7411 40.1402 40.5967 40.1402 40.4234V32.45C40.1402 32.2767 40.0824 32.1467 39.9669 32.06C39.8513 31.9734 39.7213 31.93 39.5769 31.93C39.4324 31.93 39.3169 31.9734 39.2302 32.06C39.1435 32.1467 39.1002 32.2767 39.1002 32.45V39.9034H20.6402V30.63C20.6402 30.4567 20.5824 30.3267 20.4669 30.24C20.3513 30.1534 20.2358 30.11 20.1202 30.11ZM22.2869 32.3634C22.1135 32.3634 21.9835 32.4067 21.8969 32.4934C21.8102 32.58 21.7669 32.71 21.7669 32.8834V40.4234C21.7669 40.5967 21.8102 40.7411 21.8969 40.8567C21.9835 40.9723 22.1135 41.03 22.2869 41.03H28.2669C28.3824 41.03 28.498 40.9723 28.6135 40.8567C28.7291 40.7411 28.7869 40.5967 28.7869 40.4234V34.53C28.7869 34.4145 28.7291 34.2989 28.6135 34.1834C28.498 34.0678 28.368 34.01 28.2235 34.01C28.0791 34.01 27.9491 34.0678 27.8335 34.1834C27.718 34.2989 27.6602 34.4145 27.6602 34.53V39.9034H22.8069V33.4034H28.2669C28.3824 33.4034 28.498 33.36 28.6135 33.2734C28.7291 33.1867 28.7869 33.0567 28.7869 32.8834C28.7869 32.71 28.7291 32.58 28.6135 32.4934C28.498 32.4067 28.3824 32.3634 28.2669 32.3634H22.2869ZM30.9535 32.3634C30.7802 32.3634 30.6502 32.4067 30.5635 32.4934C30.4769 32.58 30.4335 32.71 30.4335 32.8834V37.7367C30.4335 37.91 30.4769 38.04 30.5635 38.1267C30.6502 38.2134 30.7802 38.2567 30.9535 38.2567H37.4535C37.5691 38.2567 37.6847 38.2134 37.8002 38.1267C37.9158 38.04 37.9735 37.91 37.9735 37.7367V34.53C37.9735 34.4145 37.9158 34.2989 37.8002 34.1834C37.6847 34.0678 37.5547 34.01 37.4102 34.01C37.2658 34.01 37.1502 34.0678 37.0635 34.1834C36.9769 34.2989 36.9335 34.4145 36.9335 34.53V37.2167H31.4735V33.4034H37.4535C37.5691 33.4034 37.6847 33.36 37.8002 33.2734C37.9158 33.1867 37.9735 33.0567 37.9735 32.8834C37.9735 32.71 37.9158 32.58 37.8002 32.4934C37.6847 32.4067 37.5691 32.3634 37.4535 32.3634H30.9535ZM29.8269 26.5567C29.1913 26.5567 28.6569 26.7878 28.2235 27.25C27.7902 27.7123 27.5735 28.2611 27.5735 28.8967C27.5735 29.5323 27.7902 30.0811 28.2235 30.5434C28.6569 31.0056 29.1913 31.2367 29.8269 31.2367C30.4624 31.2367 31.0113 31.0056 31.4735 30.5434C31.9358 30.0811 32.1669 29.5323 32.1669 28.8967C32.1669 28.7234 32.1091 28.5934 31.9935 28.5067C31.878 28.42 31.748 28.3767 31.6035 28.3767C31.4591 28.3767 31.3291 28.42 31.2135 28.5067C31.098 28.5934 31.0402 28.7234 31.0402 28.8967C31.0402 29.2434 30.9247 29.5323 30.6935 29.7634C30.4624 29.9945 30.1735 30.11 29.8269 30.11C29.4802 30.11 29.1913 29.9945 28.9602 29.7634C28.7291 29.5323 28.6135 29.2434 28.6135 28.8967C28.6135 28.55 28.7291 28.2611 28.9602 28.03C29.1913 27.7989 29.4802 27.6834 29.8269 27.6834C30.1735 27.6834 30.4624 27.7989 30.6935 28.03C30.8091 28.1456 30.9391 28.2034 31.0835 28.2034C31.228 28.2034 31.358 28.1456 31.4735 28.03C31.5891 27.9145 31.6469 27.7845 31.6469 27.64C31.6469 27.4956 31.5891 27.3656 31.4735 27.25C31.0113 26.7878 30.4624 26.5567 29.8269 26.5567ZM33.3802 34.27C33.1491 34.27 33.0047 34.3856 32.9469 34.6167L32.3402 35.4834C32.2824 35.6567 32.268 35.8156 32.2969 35.96C32.3258 36.1045 32.4124 36.2056 32.5569 36.2634C32.7013 36.3211 32.8458 36.3356 32.9902 36.3067C33.1347 36.2778 33.2358 36.2056 33.2935 36.09L33.8135 35.1367C33.9291 35.0211 33.958 34.8911 33.9002 34.7467C33.8424 34.6023 33.7702 34.5011 33.6835 34.4434C33.5969 34.3856 33.4958 34.3278 33.3802 34.27ZM35.5469 34.27C35.3158 34.27 35.1713 34.3856 35.1135 34.6167L34.5069 35.4834C34.4491 35.6567 34.4347 35.8156 34.4635 35.96C34.4924 36.1045 34.5791 36.2056 34.7235 36.2634C34.868 36.3211 35.0124 36.3356 35.1569 36.3067C35.3013 36.2778 35.4024 36.2056 35.4602 36.09L35.9802 35.1367C36.0958 35.0211 36.1247 34.8911 36.0669 34.7467C36.0091 34.6023 35.9369 34.5011 35.8502 34.4434C35.7635 34.3856 35.6624 34.3278 35.5469 34.27ZM38.7535 16.07C37.8291 16.07 37.0202 16.4167 36.3269 17.11C35.6335 17.8034 35.2869 18.6411 35.2869 19.6234C35.2869 20.6056 35.6335 21.4289 36.3269 22.0934C37.0202 22.7578 37.8435 23.09 38.7969 23.09C39.7502 23.09 40.5735 22.7578 41.2669 22.0934C41.9602 21.4289 42.3069 20.6056 42.3069 19.6234C42.3069 18.6411 41.9602 17.8034 41.2669 17.11C40.5735 16.4167 39.7358 16.07 38.7535 16.07ZM38.7535 17.1967C39.4469 17.1967 40.0391 17.4278 40.5302 17.89C41.0213 18.3523 41.2669 18.93 41.2669 19.6234C41.2669 20.3167 41.0213 20.8945 40.5302 21.3567C40.0391 21.8189 39.4613 22.05 38.7969 22.05C38.1324 22.05 37.5547 21.8189 37.0635 21.3567C36.5724 20.8945 36.3269 20.3167 36.3269 19.6234C36.3269 18.93 36.5724 18.3523 37.0635 17.89C37.5547 17.4278 38.118 17.1967 38.7535 17.1967ZM20.2069 20.6634C20.0913 20.6634 19.9758 20.7067 19.8602 20.7934C19.7447 20.88 19.6869 21.01 19.6869 21.1834V27.3367C19.6869 27.4523 19.7447 27.5678 19.8602 27.6834C19.9758 27.7989 20.1058 27.8567 20.2502 27.8567C20.3947 27.8567 20.5102 27.7989 20.5969 27.6834C20.6835 27.5678 20.7269 27.4523 20.7269 27.3367V21.7034H22.8935V24.91C22.8935 25.0834 22.9513 25.2278 23.0669 25.3434C23.1824 25.4589 23.3124 25.5167 23.4569 25.5167C23.6013 25.5167 23.7313 25.4589 23.8469 25.3434C23.9624 25.2278 24.0202 25.0834 24.0202 24.91V21.1834C24.0202 21.01 23.9624 20.88 23.8469 20.7934C23.7313 20.7067 23.6158 20.6634 23.5002 20.6634H20.2069ZM19.1669 18.67C18.9935 18.67 18.8491 18.7278 18.7335 18.8434C18.618 18.9589 18.5602 19.0745 18.5602 19.19V21.1834C18.5602 21.2989 18.618 21.4145 18.7335 21.53C18.8491 21.6456 18.9935 21.7034 19.1669 21.7034H24.5402C24.7135 21.7034 24.8435 21.6456 24.9302 21.53C25.0169 21.4145 25.0602 21.2989 25.0602 21.1834V19.19C25.0602 19.0745 25.0169 18.9589 24.9302 18.8434C24.8435 18.7278 24.7135 18.67 24.5402 18.67H19.1669ZM19.6869 19.7967H24.0202V20.6634H19.6869V19.7967ZM24.8002 36.6967C24.8002 36.87 24.728 37.0289 24.5835 37.1734C24.4391 37.3178 24.2802 37.39 24.1069 37.39C23.9335 37.39 23.7747 37.3178 23.6302 37.1734C23.4858 37.0289 23.4135 36.8556 23.4135 36.6534C23.4135 36.4511 23.4858 36.2923 23.6302 36.1767C23.7747 36.0611 23.9335 36.0034 24.1069 36.0034C24.2802 36.0034 24.4391 36.0611 24.5835 36.1767C24.728 36.2923 24.8002 36.4656 24.8002 36.6967ZM29.7402 20.5767C29.4513 20.5767 29.1913 20.6634 28.9602 20.8367L18.1269 28.29C17.8958 28.4634 17.7513 28.7089 17.6935 29.0267C17.6358 29.3445 17.6935 29.6189 17.8669 29.85L18.4735 30.7167C18.6469 30.9478 18.878 31.0923 19.1669 31.15C19.4558 31.2078 19.7447 31.15 20.0335 30.9767L29.8269 24.13L39.7069 30.9767C39.938 31.15 40.2124 31.2078 40.5302 31.15C40.848 31.0923 41.0935 30.9478 41.2669 30.7167L41.8735 29.85C42.0469 29.6189 42.1047 29.3445 42.0469 29.0267C41.9891 28.7089 41.8447 28.4634 41.6135 28.29L30.7802 20.8367C30.4913 20.6634 30.1447 20.5767 29.7402 20.5767ZM29.8269 21.6167C29.9424 21.6167 30.058 21.6456 30.1735 21.7034L40.9202 29.2434L40.3135 30.11L30.1735 23.09C29.9424 22.9167 29.7402 22.9167 29.5669 23.09L19.3402 30.11L18.7335 29.2434L29.5669 21.7034C29.6247 21.6456 29.7113 21.6167 29.8269 21.6167Z" fill="#1A1A1A"/>
</g>
<defs>
<clipPath id="clip0_2_1634">
<rect width="26" height="26" fill="white" transform="matrix(1 0 0 -1 17 41.55)"/>
</clipPath>
</defs>
</svg>
