<svg width="41" height="41" viewBox="0 0 41 41" fill="none" xmlns="http://www.w3.org/2000/svg">
<rect x="0.359985" y="0.390015" width="40" height="40" rx="20" fill="white"/>
<g clip-path="url(#clip0_2_493)">
<path d="M13.52 19.97C13.4 19.97 13.31 20 13.25 20.06C13.19 20.12 13.16 20.21 13.16 20.33V27.11C13.16 27.23 13.19 27.33 13.25 27.41C13.31 27.49 13.4 27.53 13.52 27.53H27.02C27.1 27.53 27.18 27.49 27.26 27.41C27.34 27.33 27.38 27.23 27.38 27.11V21.59C27.38 21.47 27.34 21.38 27.26 21.32C27.18 21.26 27.09 21.23 26.99 21.23C26.89 21.23 26.81 21.26 26.75 21.32C26.69 21.38 26.66 21.47 26.66 21.59V26.75H13.88V20.33C13.88 20.21 13.84 20.12 13.76 20.06C13.68 20 13.6 19.97 13.52 19.97ZM15.02 21.53C14.9 21.53 14.81 21.56 14.75 21.62C14.69 21.68 14.66 21.77 14.66 21.89V27.11C14.66 27.23 14.69 27.33 14.75 27.41C14.81 27.49 14.9 27.53 15.02 27.53H19.16C19.24 27.53 19.32 27.49 19.4 27.41C19.48 27.33 19.52 27.23 19.52 27.11V23.03C19.52 22.95 19.48 22.87 19.4 22.79C19.32 22.71 19.23 22.67 19.13 22.67C19.03 22.67 18.94 22.71 18.86 22.79C18.78 22.87 18.74 22.95 18.74 23.03V26.75H15.38V22.25H19.16C19.24 22.25 19.32 22.22 19.4 22.16C19.48 22.1 19.52 22.01 19.52 21.89C19.52 21.77 19.48 21.68 19.4 21.62C19.32 21.56 19.24 21.53 19.16 21.53H15.02ZM21.02 21.53C20.9 21.53 20.81 21.56 20.75 21.62C20.69 21.68 20.66 21.77 20.66 21.89V25.25C20.66 25.37 20.69 25.46 20.75 25.52C20.81 25.58 20.9 25.61 21.02 25.61H25.52C25.6 25.61 25.68 25.58 25.76 25.52C25.84 25.46 25.88 25.37 25.88 25.25V23.03C25.88 22.95 25.84 22.87 25.76 22.79C25.68 22.71 25.59 22.67 25.49 22.67C25.39 22.67 25.31 22.71 25.25 22.79C25.19 22.87 25.16 22.95 25.16 23.03V24.89H21.38V22.25H25.52C25.6 22.25 25.68 22.22 25.76 22.16C25.84 22.1 25.88 22.01 25.88 21.89C25.88 21.77 25.84 21.68 25.76 21.62C25.68 21.56 25.6 21.53 25.52 21.53H21.02ZM20.24 17.51C19.8 17.51 19.43 17.67 19.13 17.99C18.83 18.31 18.68 18.69 18.68 19.13C18.68 19.57 18.83 19.95 19.13 20.27C19.43 20.59 19.8 20.75 20.24 20.75C20.68 20.75 21.06 20.59 21.38 20.27C21.7 19.95 21.86 19.57 21.86 19.13C21.86 19.01 21.82 18.92 21.74 18.86C21.66 18.8 21.57 18.77 21.47 18.77C21.37 18.77 21.28 18.8 21.2 18.86C21.12 18.92 21.08 19.01 21.08 19.13C21.08 19.37 21 19.57 20.84 19.73C20.68 19.89 20.48 19.97 20.24 19.97C20 19.97 19.8 19.89 19.64 19.73C19.48 19.57 19.4 19.37 19.4 19.13C19.4 18.89 19.48 18.69 19.64 18.53C19.8 18.37 20 18.29 20.24 18.29C20.48 18.29 20.68 18.37 20.84 18.53C20.92 18.61 21.01 18.65 21.11 18.65C21.21 18.65 21.3 18.61 21.38 18.53C21.46 18.45 21.5 18.36 21.5 18.26C21.5 18.16 21.46 18.07 21.38 17.99C21.06 17.67 20.68 17.51 20.24 17.51ZM22.7 22.85C22.54 22.85 22.44 22.93 22.4 23.09L21.98 23.69C21.94 23.81 21.93 23.92 21.95 24.02C21.97 24.12 22.03 24.19 22.13 24.23C22.23 24.27 22.33 24.28 22.43 24.26C22.53 24.24 22.6 24.19 22.64 24.11L23 23.45C23.08 23.37 23.1 23.28 23.06 23.18C23.02 23.08 22.97 23.01 22.91 22.97C22.85 22.93 22.78 22.89 22.7 22.85ZM24.2 22.85C24.04 22.85 23.94 22.93 23.9 23.09L23.48 23.69C23.44 23.81 23.43 23.92 23.45 24.02C23.47 24.12 23.53 24.19 23.63 24.23C23.73 24.27 23.83 24.28 23.93 24.26C24.03 24.24 24.1 24.19 24.14 24.11L24.5 23.45C24.58 23.37 24.6 23.28 24.56 23.18C24.52 23.08 24.47 23.01 24.41 22.97C24.35 22.93 24.28 22.89 24.2 22.85ZM26.42 10.25C25.78 10.25 25.22 10.49 24.74 10.97C24.26 11.45 24.02 12.03 24.02 12.71C24.02 13.39 24.26 13.96 24.74 14.42C25.22 14.88 25.79 15.11 26.45 15.11C27.11 15.11 27.68 14.88 28.16 14.42C28.64 13.96 28.88 13.39 28.88 12.71C28.88 12.03 28.64 11.45 28.16 10.97C27.68 10.49 27.1 10.25 26.42 10.25ZM26.42 11.03C26.9 11.03 27.31 11.19 27.65 11.51C27.99 11.83 28.16 12.23 28.16 12.71C28.16 13.19 27.99 13.59 27.65 13.91C27.31 14.23 26.91 14.39 26.45 14.39C25.99 14.39 25.59 14.23 25.25 13.91C24.91 13.59 24.74 13.19 24.74 12.71C24.74 12.23 24.91 11.83 25.25 11.51C25.59 11.19 25.98 11.03 26.42 11.03ZM13.58 13.43C13.5 13.43 13.42 13.46 13.34 13.52C13.26 13.58 13.22 13.67 13.22 13.79V18.05C13.22 18.13 13.26 18.21 13.34 18.29C13.42 18.37 13.51 18.41 13.61 18.41C13.71 18.41 13.79 18.37 13.85 18.29C13.91 18.21 13.94 18.13 13.94 18.05V14.15H15.44V16.37C15.44 16.49 15.48 16.59 15.56 16.67C15.64 16.75 15.73 16.79 15.83 16.79C15.93 16.79 16.02 16.75 16.1 16.67C16.18 16.59 16.22 16.49 16.22 16.37V13.79C16.22 13.67 16.18 13.58 16.1 13.52C16.02 13.46 15.94 13.43 15.86 13.43H13.58ZM12.86 12.05C12.74 12.05 12.64 12.09 12.56 12.17C12.48 12.25 12.44 12.33 12.44 12.41V13.79C12.44 13.87 12.48 13.95 12.56 14.03C12.64 14.11 12.74 14.15 12.86 14.15H16.58C16.7 14.15 16.79 14.11 16.85 14.03C16.91 13.95 16.94 13.87 16.94 13.79V12.41C16.94 12.33 16.91 12.25 16.85 12.17C16.79 12.09 16.7 12.05 16.58 12.05H12.86ZM13.22 12.83H16.22V13.43H13.22V12.83ZM16.76 24.53C16.76 24.65 16.71 24.76 16.61 24.86C16.51 24.96 16.4 25.01 16.28 25.01C16.16 25.01 16.05 24.96 15.95 24.86C15.85 24.76 15.8 24.64 15.8 24.5C15.8 24.36 15.85 24.25 15.95 24.17C16.05 24.09 16.16 24.05 16.28 24.05C16.4 24.05 16.51 24.09 16.61 24.17C16.71 24.25 16.76 24.37 16.76 24.53ZM20.18 13.37C19.98 13.37 19.8 13.43 19.64 13.55L12.14 18.71C11.98 18.83 11.88 19 11.84 19.22C11.8 19.44 11.84 19.63 11.96 19.79L12.38 20.39C12.5 20.55 12.66 20.65 12.86 20.69C13.06 20.73 13.26 20.69 13.46 20.57L20.24 15.83L27.08 20.57C27.24 20.69 27.43 20.73 27.65 20.69C27.87 20.65 28.04 20.55 28.16 20.39L28.58 19.79C28.7 19.63 28.74 19.44 28.7 19.22C28.66 19 28.56 18.83 28.4 18.71L20.9 13.55C20.7 13.43 20.46 13.37 20.18 13.37ZM20.24 14.09C20.32 14.09 20.4 14.11 20.48 14.15L27.92 19.37L27.5 19.97L20.48 15.11C20.32 14.99 20.18 14.99 20.06 15.11L12.98 19.97L12.56 19.37L20.06 14.15C20.1 14.11 20.16 14.09 20.24 14.09Z" fill="#1A1A1A"/>
</g>
<defs>
<clipPath id="clip0_2_493">
<rect width="18" height="18" fill="white" transform="matrix(1 0 0 -1 11.36 27.89)"/>
</clipPath>
</defs>
</svg>
