<svg width="50" height="51" viewBox="0 0 50 51" fill="none" xmlns="http://www.w3.org/2000/svg">
<rect y="0.0898438" width="50" height="50" rx="25" fill="#222121"/>
<g clip-path="url(#clip0_2_427)">
<path d="M24.4153 18.8932L24.4146 18.8939L19.8972 23.4113C19.5459 23.7657 19.5484 24.3377 19.9028 24.689C19.9309 24.7168 19.9606 24.7427 19.992 24.7665C20.3698 25.0198 20.8751 24.9645 21.1892 24.6355L23.6918 22.1419C23.8245 22.0093 23.9358 21.8569 24.0216 21.6902L24.1661 21.4146L24.1662 30.2913C24.147 30.7459 24.4579 31.1482 24.9025 31.2445C25.395 31.3244 25.8591 30.9899 25.939 30.4973C25.9473 30.4456 25.9512 30.3933 25.9505 30.341V21.4327L26.0409 21.6269C26.1294 21.8165 26.2501 21.9892 26.3978 22.1374L28.8959 24.6355C29.21 24.9645 29.7152 25.0198 30.093 24.7665C30.4956 24.4717 30.583 23.9064 30.2882 23.5038C30.2644 23.4713 30.2384 23.4404 30.2105 23.4113L25.693 18.8939C25.3404 18.5409 24.7684 18.5405 24.4153 18.8932Z" fill="white"/>
</g>
<defs>
<clipPath id="clip0_2_427">
<rect width="11" height="13" fill="white" transform="translate(19.5 18.5898)"/>
</clipPath>
</defs>
</svg>
