<svg width="60" height="61" viewBox="0 0 60 61" fill="none" xmlns="http://www.w3.org/2000/svg">
<rect y="0.550049" width="60" height="60" rx="12" fill="#FFF8F6"/>
<g clip-path="url(#clip0_2_1646)">
<path d="M42.48 39.99H40.92V31.7567C40.92 31.6411 40.8767 31.5256 40.79 31.41C40.7033 31.2945 40.5878 31.2367 40.4433 31.2367C40.2989 31.2367 40.1689 31.2945 40.0533 31.41C39.9378 31.5256 39.88 31.6411 39.88 31.7567V39.99H36.24V35.7434C36.24 35.6278 36.1967 35.5122 36.11 35.3967C36.0233 35.2811 35.8933 35.2234 35.72 35.2234H32.4267C32.3111 35.2234 32.1956 35.2811 32.08 35.3967C31.9644 35.5122 31.9067 35.6278 31.9067 35.7434V39.99H28.3533V19.1034H39.88V27.25C39.88 27.4234 39.9378 27.5534 40.0533 27.64C40.1689 27.7267 40.2989 27.77 40.4433 27.77C40.5878 27.77 40.7033 27.7267 40.79 27.64C40.8767 27.5534 40.92 27.4234 40.92 27.25V18.5834C40.92 18.41 40.8767 18.28 40.79 18.1934C40.7033 18.1067 40.5733 18.0634 40.4 18.0634H39.1867V16.59C39.1867 16.4745 39.1289 16.3734 39.0133 16.2867C38.8978 16.2 38.7822 16.1567 38.6667 16.1567H29.74C29.6244 16.1567 29.5089 16.2 29.3933 16.2867C29.2778 16.3734 29.22 16.4745 29.22 16.59V18.0634H27.8333C27.7178 18.0634 27.6167 18.1067 27.53 18.1934C27.4433 18.28 27.4 18.41 27.4 18.5834V26.47H23.4133V24.91C23.4133 24.7367 23.3556 24.6067 23.24 24.52C23.1244 24.4334 23.0089 24.39 22.8933 24.39H19.34C19.2244 24.39 19.1089 24.4334 18.9933 24.52C18.8778 24.6067 18.82 24.7367 18.82 24.91V39.99H17.52C17.3467 39.99 17.2167 40.0334 17.13 40.12C17.0433 40.2067 17 40.3222 17 40.4667C17 40.6111 17.0433 40.7267 17.13 40.8134C17.2167 40.9 17.3467 40.9434 17.52 40.9434H42.48C42.6533 40.9434 42.7833 40.9 42.87 40.8134C42.9567 40.7267 43 40.6111 43 40.4667C43 40.3222 42.9567 40.2067 42.87 40.12C42.7833 40.0334 42.6533 39.99 42.48 39.99ZM30.26 17.11H38.1467V18.0634H30.26V17.11ZM19.86 25.43H22.3733V26.47H19.86V25.43ZM24.1933 39.99H22.98V38.17H24.1933V39.99ZM27.4 39.99H25.2333V37.65C25.2333 37.5345 25.1756 37.4189 25.06 37.3034C24.9444 37.1878 24.8289 37.13 24.7133 37.13H22.46C22.3444 37.13 22.2289 37.1878 22.1133 37.3034C21.9978 37.4189 21.94 37.5345 21.94 37.65V39.99H19.86V27.51H27.4V39.99ZM35.2867 39.99H32.9467V36.2634H35.2867V39.99ZM40.8333 29.33C40.7178 29.0989 40.5444 29.0122 40.3133 29.07C40.0822 29.1278 39.9522 29.2722 39.9233 29.5034C39.8944 29.7345 39.9811 29.9078 40.1833 30.0234C40.3856 30.1389 40.5589 30.1389 40.7033 30.0234C40.8478 29.9078 40.92 29.7922 40.92 29.6767C40.92 29.5611 40.8911 29.4456 40.8333 29.33ZM33.2933 21.3567C33.2933 21.2411 33.2356 21.14 33.12 21.0534C33.0044 20.9667 32.8889 20.9234 32.7733 20.9234H30.6067C30.4911 20.9234 30.3756 20.9667 30.26 21.0534C30.1444 21.14 30.0867 21.2411 30.0867 21.3567V23.5234C30.0867 23.6967 30.1444 23.8267 30.26 23.9134C30.3756 24 30.4911 24.0434 30.6067 24.0434H32.7733C32.8889 24.0434 33.0044 24 33.12 23.9134C33.2356 23.8267 33.2933 23.6967 33.2933 23.5234V21.3567ZM32.2533 23.0034H31.1267V21.8767H32.2533V23.0034ZM38.06 21.3567C38.06 21.2411 38.0022 21.14 37.8867 21.0534C37.7711 20.9667 37.6556 20.9234 37.54 20.9234H35.3733C35.2578 20.9234 35.1422 20.9667 35.0267 21.0534C34.9111 21.14 34.8533 21.2411 34.8533 21.3567V23.5234C34.8533 23.6967 34.9111 23.8267 35.0267 23.9134C35.1422 24 35.2578 24.0434 35.3733 24.0434H37.54C37.6556 24.0434 37.7711 24 37.8867 23.9134C38.0022 23.8267 38.06 23.6967 38.06 23.5234V21.3567ZM37.02 23.0034H35.8933V21.8767H37.02V23.0034ZM33.2933 25.8634C33.2933 25.69 33.2356 25.56 33.12 25.4734C33.0044 25.3867 32.8889 25.3434 32.7733 25.3434H30.6067C30.4911 25.3434 30.3756 25.3867 30.26 25.4734C30.1444 25.56 30.0867 25.69 30.0867 25.8634V27.9434C30.0867 28.1167 30.1444 28.2467 30.26 28.3334C30.3756 28.42 30.4911 28.4634 30.6067 28.4634H32.7733C32.8889 28.4634 33.0044 28.42 33.12 28.3334C33.2356 28.2467 33.2933 28.1167 33.2933 27.9434V25.8634ZM32.2533 27.51H31.1267V26.3834H32.2533V27.51ZM38.06 25.8634C38.06 25.69 38.0022 25.56 37.8867 25.4734C37.7711 25.3867 37.6556 25.3434 37.54 25.3434H35.3733C35.2578 25.3434 35.1422 25.3867 35.0267 25.4734C34.9111 25.56 34.8533 25.69 34.8533 25.8634V27.9434C34.8533 28.1167 34.9111 28.2467 35.0267 28.3334C35.1422 28.42 35.2578 28.4634 35.3733 28.4634H37.54C37.6556 28.4634 37.7711 28.42 37.8867 28.3334C38.0022 28.2467 38.06 28.1167 38.06 27.9434V25.8634ZM37.02 27.51H35.8933V26.3834H37.02V27.51ZM32.7733 29.7634H30.6067C30.4911 29.7634 30.3756 29.8067 30.26 29.8934C30.1444 29.98 30.0867 30.11 30.0867 30.2834V32.45C30.0867 32.5656 30.1444 32.6811 30.26 32.7967C30.3756 32.9122 30.4911 32.97 30.6067 32.97H32.7733C32.8889 32.97 33.0044 32.9122 33.12 32.7967C33.2356 32.6811 33.2933 32.5656 33.2933 32.45V30.2834C33.2933 30.11 33.2356 29.98 33.12 29.8934C33.0044 29.8067 32.8889 29.7634 32.7733 29.7634ZM32.2533 31.93H31.1267V30.8034H32.2533V31.93ZM37.54 29.7634H35.3733C35.2578 29.7634 35.1422 29.8067 35.0267 29.8934C34.9111 29.98 34.8533 30.11 34.8533 30.2834V32.45C34.8533 32.5656 34.9111 32.6811 35.0267 32.7967C35.1422 32.9122 35.2578 32.97 35.3733 32.97H37.54C37.6556 32.97 37.7711 32.9122 37.8867 32.7967C38.0022 32.6811 38.06 32.5656 38.06 32.45V30.2834C38.06 30.11 38.0022 29.98 37.8867 29.8934C37.7711 29.8067 37.6556 29.7634 37.54 29.7634ZM37.02 31.93H35.8933V30.8034H37.02V31.93ZM21.5067 28.6367C21.3911 28.6367 21.2756 28.6945 21.16 28.81C21.0444 28.9256 20.9867 29.0411 20.9867 29.1567V35.57C20.9867 35.6856 21.0444 35.8011 21.16 35.9167C21.2756 36.0322 21.3911 36.09 21.5067 36.09C21.6222 36.09 21.7378 36.0322 21.8533 35.9167C21.9689 35.8011 22.0267 35.6856 22.0267 35.57V29.1567C22.0267 29.0411 21.9689 28.9256 21.8533 28.81C21.7378 28.6945 21.6222 28.6367 21.5067 28.6367ZM23.5867 36.09C23.7022 36.09 23.8178 36.0322 23.9333 35.9167C24.0489 35.8011 24.1067 35.6856 24.1067 35.57V29.1567C24.1067 29.0411 24.0489 28.9256 23.9333 28.81C23.8178 28.6945 23.7022 28.6367 23.5867 28.6367C23.4711 28.6367 23.3556 28.6945 23.24 28.81C23.1244 28.9256 23.0667 29.0411 23.0667 29.1567V35.57C23.0667 35.6856 23.1244 35.8011 23.24 35.9167C23.3556 36.0322 23.4711 36.09 23.5867 36.09ZM25.6667 36.09C25.7822 36.09 25.8978 36.0322 26.0133 35.9167C26.1289 35.8011 26.1867 35.6856 26.1867 35.57V29.1567C26.1867 29.0411 26.1289 28.9256 26.0133 28.81C25.8978 28.6945 25.7822 28.6367 25.6667 28.6367C25.5511 28.6367 25.4356 28.6945 25.32 28.81C25.2044 28.9256 25.1467 29.0411 25.1467 29.1567V35.57C25.1467 35.6856 25.2044 35.8011 25.32 35.9167C25.4356 36.0322 25.5511 36.09 25.6667 36.09Z" fill="#1A1A1A"/>
</g>
<defs>
<clipPath id="clip0_2_1646">
<rect width="26" height="26" fill="white" transform="matrix(1 0 0 -1 17 41.55)"/>
</clipPath>
</defs>
</svg>
