<svg width="81" height="81" viewBox="0 0 81 81" fill="none" xmlns="http://www.w3.org/2000/svg">
<rect x="0.330078" y="0.199951" width="80" height="80" rx="40" fill="#E7C873"/>
<g clip-path="url(#clip0_2_2219)">
<path d="M40.3301 51.3167H29.4801C28.8579 51.3167 28.3524 51.1028 27.9635 50.675C27.5746 50.2472 27.3801 49.7611 27.3801 49.2167V34.6334L38.3468 24.95C38.8913 24.4834 39.5524 24.25 40.3301 24.25C41.1079 24.25 41.769 24.4834 42.3135 24.95L56.1968 37.2C56.3524 37.3556 56.5468 37.4139 56.7801 37.375C57.0135 37.3361 57.2079 37.2389 57.3635 37.0834C57.519 36.9278 57.5774 36.7334 57.5385 36.5C57.4996 36.2667 57.4024 36.0722 57.2468 35.9167L54.9135 33.9334V25.65C54.9135 24.4834 54.4857 23.4722 53.6301 22.6167C52.7746 21.7611 51.7635 21.3528 50.5968 21.3917C49.4301 21.4306 48.4385 21.8584 47.6218 22.675C46.8051 23.4917 46.3579 24.4834 46.2801 25.65V26.35L43.3635 23.7834C42.5079 23.0056 41.4968 22.6167 40.3301 22.6167C39.1635 22.6167 38.1524 23.0056 37.2968 23.7834L23.4135 35.9167C23.1801 36.0722 23.0635 36.2667 23.0635 36.5C23.0635 36.7334 23.1413 36.9278 23.2968 37.0834C23.4524 37.2389 23.6468 37.3361 23.8801 37.375C24.1135 37.4139 24.3079 37.3556 24.4635 37.2L25.7468 36.15V49.2167C25.7468 50.2278 26.1163 51.1028 26.8551 51.8417C27.594 52.5806 28.469 52.95 29.4801 52.95H40.3301C40.5635 52.95 40.7579 52.8722 40.9135 52.7167C41.069 52.5611 41.1468 52.3667 41.1468 52.1334C41.1468 51.9 41.069 51.7056 40.9135 51.55C40.7579 51.3945 40.5635 51.3167 40.3301 51.3167ZM47.9135 25.65C47.9913 24.8722 48.2829 24.2306 48.7885 23.725C49.294 23.2195 49.9163 22.9861 50.6551 23.025C51.394 23.0639 52.0163 23.3361 52.5218 23.8417C53.0274 24.3472 53.2801 24.95 53.2801 25.65V32.4167L47.9135 27.75V25.65ZM40.3301 29.6167C39.2413 29.6167 38.3079 30.0056 37.5301 30.7834C36.7524 31.5611 36.3635 32.4945 36.3635 33.5834C36.3635 34.6722 36.7524 35.6056 37.5301 36.3834C38.3079 37.1611 39.2413 37.55 40.3301 37.55C41.419 37.55 42.3524 37.1611 43.1301 36.3834C43.9079 35.6056 44.2968 34.6722 44.2968 33.5834C44.2968 32.4945 43.9079 31.5611 43.1301 30.7834C42.3524 30.0056 41.419 29.6167 40.3301 29.6167ZM42.6635 33.5834C42.6635 34.2834 42.4301 34.8472 41.9635 35.275C41.4968 35.7028 40.9524 35.9167 40.3301 35.9167C39.7079 35.9167 39.1635 35.7028 38.6968 35.275C38.2301 34.8472 37.9968 34.3028 37.9968 33.6417C37.9968 32.9806 38.2301 32.4167 38.6968 31.95C39.1635 31.4834 39.7079 31.25 40.3301 31.25C40.9524 31.25 41.4968 31.4834 41.9635 31.95C42.4301 32.4167 42.6635 32.9611 42.6635 33.5834ZM57.3635 51.6667L54.5635 48.75C55.2635 47.7389 55.6135 46.6111 55.6135 45.3667C55.6135 43.8111 55.0496 42.4889 53.9218 41.4C52.794 40.3111 51.4524 39.7667 49.8968 39.7667C48.3413 39.7667 46.9996 40.3111 45.8718 41.4C44.744 42.4889 44.1801 43.8306 44.1801 45.425C44.1801 47.0195 44.744 48.3611 45.8718 49.45C46.9996 50.5389 48.3413 51.0834 49.8968 51.0834C51.219 51.0834 52.3857 50.6945 53.3968 49.9167L56.0801 52.7167C56.2357 52.8722 56.4301 52.9695 56.6635 53.0084C56.8968 53.0472 57.1107 52.9889 57.3051 52.8334C57.4996 52.6778 57.5968 52.4834 57.5968 52.25C57.5968 52.0167 57.519 51.8222 57.3635 51.6667ZM49.8968 49.45C48.8079 49.45 47.8551 49.0611 47.0385 48.2834C46.2218 47.5056 45.8135 46.5528 45.8135 45.425C45.8135 44.2972 46.2218 43.3445 47.0385 42.5667C47.8551 41.7889 48.8274 41.4 49.9551 41.4C51.0829 41.4 52.0357 41.7889 52.8135 42.5667C53.5913 43.3445 53.9801 44.2972 53.9801 45.425C53.9801 46.5528 53.5913 47.5056 52.8135 48.2834C52.0357 49.0611 51.0635 49.45 49.8968 49.45Z" fill="#1A1A1A"/>
</g>
<defs>
<clipPath id="clip0_2_2219">
<rect width="35" height="35" fill="white" transform="matrix(1 0 0 -1 22.8301 54.7)"/>
</clipPath>
</defs>
</svg>
