<svg width="90" height="91" viewBox="0 0 90 91" fill="none" xmlns="http://www.w3.org/2000/svg">
<rect y="0.0800781" width="90" height="90" rx="45" fill="white"/>
<g clip-path="url(#clip0_2_2602)">
<path d="M62.8574 25.5801L45.6574 21.7134C44.7685 21.4467 43.9907 21.6023 43.3241 22.1801C42.6574 22.7579 42.3241 23.4912 42.3241 24.3801V28.3801L37.2574 32.6467C36.9018 31.7579 36.3018 31.0467 35.4574 30.5134C34.613 29.9801 33.7018 29.7134 32.7241 29.7134C31.3907 29.7134 30.2352 30.1801 29.2574 31.1134C28.2796 32.0467 27.7463 33.2245 27.6574 34.6467C26.3241 35.3579 25.4796 36.4245 25.1241 37.8467C24.7685 39.269 24.9907 40.6023 25.7907 41.8467C25.2574 42.6467 24.9907 43.5801 24.9907 44.6467C24.9907 46.1579 25.5685 47.4467 26.7241 48.5134V58.7801C26.7241 59.5801 26.9907 60.2467 27.5241 60.7801C28.0574 61.3134 28.7241 61.5801 29.5241 61.5801H62.1907C62.9907 61.5801 63.6574 61.3134 64.1907 60.7801C64.7241 60.2467 64.9907 59.5801 64.9907 58.7801V28.2467C64.9907 27.6245 64.7907 27.069 64.3907 26.5801C63.9907 26.0912 63.4796 25.7579 62.8574 25.5801ZM31.5241 59.1801H29.5241C29.2574 59.1801 29.1241 59.0467 29.1241 58.7801V49.5801C29.9241 49.7579 30.7241 49.7134 31.5241 49.4467V59.1801ZM31.9241 46.6467C31.3018 47.1801 30.6352 47.4245 29.9241 47.3801C29.213 47.3356 28.613 47.069 28.1241 46.5801C27.6352 46.0912 27.3907 45.4467 27.3907 44.6467C27.3907 43.8467 27.6574 43.1801 28.1907 42.6467C28.4574 42.469 28.5907 42.2023 28.5907 41.8467C28.5907 41.4912 28.413 41.1801 28.0574 40.9134L27.9241 40.6467C27.3018 39.9356 27.1241 39.1356 27.3907 38.2467C27.6574 37.3579 28.2796 36.7801 29.2574 36.5134C29.5241 36.4245 29.7241 36.2467 29.8574 35.9801C29.9907 35.7134 30.0574 35.4467 30.0574 35.1801C29.8796 34.3801 30.0796 33.669 30.6574 33.0467C31.2352 32.4245 31.9241 32.1134 32.7241 32.1134C33.5241 32.1134 34.1907 32.4245 34.7241 33.0467C35.2574 33.669 35.4796 34.3801 35.3907 35.1801C35.3907 35.4467 35.4574 35.7134 35.5907 35.9801C35.7241 36.2467 35.9241 36.4245 36.1907 36.5134C36.813 36.6912 37.3018 37.0467 37.6574 37.5801C38.013 38.1134 38.1463 38.6912 38.0574 39.3134C37.9685 39.9356 37.7018 40.5134 37.2574 41.0467C36.9907 41.2245 36.8574 41.4912 36.8574 41.8467C36.8574 42.2023 36.9907 42.469 37.2574 42.6467C37.7907 43.1801 38.0574 43.8245 38.0574 44.5801C38.0574 45.3356 37.813 45.9801 37.3241 46.5134C36.8352 47.0467 36.213 47.3356 35.4574 47.3801C34.7018 47.4245 34.0574 47.1801 33.5241 46.6467C33.2574 46.469 32.9685 46.3801 32.6574 46.3801C32.3463 46.3801 32.1018 46.469 31.9241 46.6467ZM42.3241 59.1801H33.9241V49.4467C34.9018 49.8023 35.9018 49.8023 36.9241 49.4467C37.9463 49.0912 38.7907 48.4912 39.4574 47.6467C40.1241 46.8023 40.4574 45.8245 40.4574 44.7134C40.4574 43.6023 40.1463 42.6467 39.5241 41.8467C40.3241 40.6912 40.5907 39.4467 40.3241 38.1134C40.0574 36.7801 39.3907 35.7134 38.3241 34.9134L42.3241 31.4467V59.1801ZM57.5241 59.1801H49.7907V50.1134C49.7907 49.8467 49.9241 49.7134 50.1907 49.7134H57.1241C57.3907 49.7134 57.5241 49.8467 57.5241 50.1134V59.1801ZM62.5907 58.7801C62.5907 59.0467 62.4574 59.1801 62.1907 59.1801H59.7907V50.1134C59.7907 49.3134 59.5241 48.6467 58.9907 48.1134C58.4574 47.5801 57.8352 47.3134 57.1241 47.3134H50.1907C49.4796 47.3134 48.8574 47.5801 48.3241 48.1134C47.7907 48.6467 47.5241 49.3134 47.5241 50.1134V59.1801H44.7241V24.3801C44.7241 24.2023 44.7685 24.069 44.8574 23.9801C44.9463 23.8912 45.0352 23.8912 45.1241 23.9801L62.3241 27.8467C62.5018 27.9356 62.5907 28.069 62.5907 28.2467V58.7801ZM48.5907 31.1801C48.3241 31.1801 48.0796 31.2912 47.8574 31.5134C47.6352 31.7356 47.5241 32.0245 47.5241 32.3801V32.5134C47.5241 32.7801 47.6352 33.0467 47.8574 33.3134C48.0796 33.5801 48.3463 33.7134 48.6574 33.7134C48.9685 33.7134 49.2352 33.5801 49.4574 33.3134C49.6796 33.0467 49.7907 32.7801 49.7907 32.5134V32.3801C49.7907 32.0245 49.6796 31.7356 49.4574 31.5134C49.2352 31.2912 48.9463 31.1801 48.5907 31.1801ZM53.6574 31.1801C53.3018 31.1801 53.013 31.2912 52.7907 31.5134C52.5685 31.7356 52.4574 32.0245 52.4574 32.3801V32.5134C52.4574 32.7801 52.5685 33.0467 52.7907 33.3134C53.013 33.5801 53.3018 33.7134 53.6574 33.7134C54.013 33.7134 54.3018 33.5801 54.5241 33.3134C54.7463 33.0467 54.8574 32.7801 54.8574 32.5134V32.3801C54.8574 32.0245 54.7463 31.7356 54.5241 31.5134C54.3018 31.2912 54.013 31.1801 53.6574 31.1801ZM58.5907 31.1801C58.3241 31.1801 58.0796 31.2912 57.8574 31.5134C57.6352 31.7356 57.5241 32.0245 57.5241 32.3801V32.5134C57.5241 32.7801 57.6352 33.0467 57.8574 33.3134C58.0796 33.5801 58.3463 33.7134 58.6574 33.7134C58.9685 33.7134 59.2352 33.5801 59.4574 33.3134C59.6796 33.0467 59.7907 32.7801 59.7907 32.5134V32.3801C59.7907 32.0245 59.6796 31.7356 59.4574 31.5134C59.2352 31.2912 58.9463 31.1801 58.5907 31.1801ZM48.5907 36.6467C48.3241 36.6467 48.0796 36.7579 47.8574 36.9801C47.6352 37.2023 47.5241 37.4912 47.5241 37.8467V37.9801C47.5241 38.3356 47.6352 38.6245 47.8574 38.8467C48.0796 39.069 48.3463 39.1801 48.6574 39.1801C48.9685 39.1801 49.2352 39.069 49.4574 38.8467C49.6796 38.6245 49.7907 38.3356 49.7907 37.9801V37.8467C49.7907 37.4912 49.6796 37.2023 49.4574 36.9801C49.2352 36.7579 48.9463 36.6467 48.5907 36.6467ZM53.6574 36.6467C53.3018 36.6467 53.013 36.7579 52.7907 36.9801C52.5685 37.2023 52.4574 37.4912 52.4574 37.8467V37.9801C52.4574 38.3356 52.5685 38.6245 52.7907 38.8467C53.013 39.069 53.3018 39.1801 53.6574 39.1801C54.013 39.1801 54.3018 39.069 54.5241 38.8467C54.7463 38.6245 54.8574 38.3356 54.8574 37.9801V37.8467C54.8574 37.4912 54.7463 37.2023 54.5241 36.9801C54.3018 36.7579 54.013 36.6467 53.6574 36.6467ZM58.5907 36.6467C58.3241 36.6467 58.0796 36.7579 57.8574 36.9801C57.6352 37.2023 57.5241 37.4912 57.5241 37.8467V37.9801C57.5241 38.3356 57.6352 38.6245 57.8574 38.8467C58.0796 39.069 58.3463 39.1801 58.6574 39.1801C58.9685 39.1801 59.2352 39.069 59.4574 38.8467C59.6796 38.6245 59.7907 38.3356 59.7907 37.9801V37.8467C59.7907 37.4912 59.6796 37.2023 59.4574 36.9801C59.2352 36.7579 58.9463 36.6467 58.5907 36.6467ZM48.5907 42.3801C48.3241 42.3801 48.0796 42.4912 47.8574 42.7134C47.6352 42.9356 47.5241 43.1801 47.5241 43.4467V43.7134C47.5241 43.9801 47.6352 44.2467 47.8574 44.5134C48.0796 44.7801 48.3463 44.9134 48.6574 44.9134C48.9685 44.9134 49.2352 44.7801 49.4574 44.5134C49.6796 44.2467 49.7907 43.9801 49.7907 43.7134V43.4467C49.7907 43.1801 49.6796 42.9356 49.4574 42.7134C49.2352 42.4912 48.9463 42.3801 48.5907 42.3801ZM53.6574 42.3801C53.3018 42.3801 53.013 42.4912 52.7907 42.7134C52.5685 42.9356 52.4574 43.1801 52.4574 43.4467V43.7134C52.4574 43.9801 52.5685 44.2467 52.7907 44.5134C53.013 44.7801 53.3018 44.9134 53.6574 44.9134C54.013 44.9134 54.3018 44.7801 54.5241 44.5134C54.7463 44.2467 54.8574 43.9801 54.8574 43.7134V43.4467C54.8574 43.1801 54.7463 42.9356 54.5241 42.7134C54.3018 42.4912 54.013 42.3801 53.6574 42.3801ZM58.5907 42.3801C58.3241 42.3801 58.0796 42.4912 57.8574 42.7134C57.6352 42.9356 57.5241 43.1801 57.5241 43.4467V43.7134C57.5241 43.9801 57.6352 44.2467 57.8574 44.5134C58.0796 44.7801 58.3463 44.9134 58.6574 44.9134C58.9685 44.9134 59.2352 44.7801 59.4574 44.5134C59.6796 44.2467 59.7907 43.9801 59.7907 43.7134V43.4467C59.7907 43.1801 59.6796 42.9356 59.4574 42.7134C59.2352 42.4912 58.9463 42.3801 58.5907 42.3801Z" fill="#1A1A1A"/>
</g>
<defs>
<clipPath id="clip0_2_2602">
<rect width="40.02" height="40" fill="white" transform="matrix(1 0 0 -1 24.9805 61.5801)"/>
</clipPath>
</defs>
</svg>
