<svg width="60" height="61" viewBox="0 0 60 61" fill="none" xmlns="http://www.w3.org/2000/svg">
<rect y="0.550049" width="60" height="60" rx="12" fill="#FFF8F6"/>
<g clip-path="url(#clip0_2_1652)">
<path d="M18.04 37.7367C17.9245 37.7367 17.8089 37.7945 17.6934 37.91C17.5778 38.0256 17.52 38.1411 17.52 38.2567V40.4234C17.52 40.5967 17.5778 40.7411 17.6934 40.8567C17.8089 40.9723 17.9245 41.03 18.04 41.03H37.02C37.1934 41.03 37.3378 40.9723 37.4534 40.8567C37.5689 40.7411 37.5978 40.5967 37.54 40.4234V38.2567C37.54 38.1411 37.4967 38.0256 37.41 37.91C37.3234 37.7945 37.1934 37.7367 37.02 37.7367H18.04ZM18.6467 38.8634H36.5V39.9034H18.6467V38.8634ZM35.3734 28.03C35.2578 28.03 35.1422 28.0734 35.0267 28.16C34.9111 28.2467 34.8534 28.3767 34.8534 28.55V37.7367H20.2067V30.2834C20.2645 30.11 20.2356 29.98 20.12 29.8934C20.0045 29.8067 19.8745 29.7634 19.73 29.7634C19.5856 29.7634 19.4556 29.8067 19.34 29.8934C19.2245 29.98 19.1667 30.11 19.1667 30.2834V38.2567C19.1667 38.43 19.2245 38.5745 19.34 38.69C19.4556 38.8056 19.5711 38.8634 19.6867 38.8634H35.3734C35.5467 38.8634 35.6911 38.8056 35.8067 38.69C35.9222 38.5745 35.98 38.43 35.98 38.2567V28.55C35.98 28.3767 35.9222 28.2467 35.8067 28.16C35.6911 28.0734 35.5467 28.03 35.3734 28.03ZM20.2067 22.05C19.9756 22.05 19.8311 22.1656 19.7734 22.3967L17.6067 28.3767C17.5489 28.55 17.5634 28.7089 17.65 28.8534C17.7367 28.9978 17.8667 29.07 18.04 29.07H37.02C37.2511 29.07 37.41 28.9978 37.4967 28.8534C37.5834 28.7089 37.5978 28.55 37.54 28.3767L35.3734 22.3967C35.3156 22.1656 35.1422 22.05 34.8534 22.05H32.1667C31.9934 22.05 31.8634 22.1078 31.7767 22.2234C31.69 22.3389 31.6467 22.4689 31.6467 22.6134C31.6467 22.7578 31.69 22.8734 31.7767 22.96C31.8634 23.0467 31.9934 23.09 32.1667 23.09H34.5067L36.24 28.03H18.82L20.64 23.09H23.24C23.3556 23.09 23.4711 23.0467 23.5867 22.96C23.7022 22.8734 23.76 22.7578 23.76 22.6134C23.76 22.4689 23.7022 22.3389 23.5867 22.2234C23.4711 22.1078 23.3556 22.05 23.24 22.05H20.2067ZM23.24 20.1434C23.0667 20.1434 22.9367 20.2011 22.85 20.3167C22.7634 20.4323 22.72 20.5767 22.72 20.75V25.8634C22.72 25.9789 22.7634 26.0945 22.85 26.21C22.9367 26.3256 23.0667 26.3834 23.24 26.3834H31.9067C32.0222 26.3834 32.1378 26.3256 32.2534 26.21C32.3689 26.0945 32.4267 25.9789 32.4267 25.8634V20.75C32.4267 20.5767 32.3689 20.4323 32.2534 20.3167C32.1378 20.2011 32.0078 20.1434 31.8634 20.1434C31.7189 20.1434 31.6034 20.2011 31.5167 20.3167C31.43 20.4323 31.3867 20.5767 31.3867 20.75V25.2567H23.76V20.75C23.76 20.5767 23.7022 20.4323 23.5867 20.3167C23.4711 20.2011 23.3556 20.1434 23.24 20.1434ZM22.98 16.07C22.6911 16.07 22.5178 16.2145 22.46 16.5034L21.0734 20.5767C21.0156 20.75 21.0445 20.9089 21.16 21.0534C21.2756 21.1978 21.42 21.27 21.5934 21.27H33.5534C33.7267 21.27 33.8711 21.1978 33.9867 21.0534C34.1022 20.9089 34.1311 20.75 34.0734 20.5767L32.6867 16.5034C32.6289 16.2145 32.4556 16.07 32.1667 16.07H22.98ZM23.3267 17.1967H31.82L32.7734 20.1434H22.3734L23.3267 17.1967ZM21.8534 31.8434C21.7378 31.7856 21.6222 31.8145 21.5067 31.93C21.3911 32.0456 21.3334 32.19 21.3334 32.3634V38.2567C21.3334 38.43 21.3911 38.5745 21.5067 38.69C21.6222 38.8056 21.7378 38.8634 21.8534 38.8634H26.5334C26.6489 38.8634 26.7645 38.8056 26.88 38.69C26.9956 38.5745 27.0534 38.43 27.0534 38.2567V32.3634C27.0534 32.19 26.9956 32.06 26.88 31.9734C26.7645 31.8867 26.6489 31.8434 26.5334 31.8434H21.8534ZM22.46 32.8834H25.9267V37.7367H22.46V32.8834ZM28.7 31.8434C28.5267 31.7856 28.3822 31.8145 28.2667 31.93C28.1511 32.0456 28.0934 32.19 28.0934 32.3634V36.0034C28.0934 36.1189 28.1511 36.2345 28.2667 36.35C28.3822 36.4656 28.5267 36.5234 28.7 36.5234H33.8134C33.9289 36.5234 34.0445 36.4656 34.16 36.35C34.2756 36.2345 34.3334 36.1189 34.3334 36.0034V34.1834C34.3334 34.01 34.2756 33.88 34.16 33.7934C34.0445 33.7067 33.9145 33.6634 33.77 33.6634C33.6256 33.6634 33.4956 33.7067 33.38 33.7934C33.2645 33.88 33.2067 34.01 33.2067 34.1834V35.4834H29.22V32.8834H33.8134C33.9289 32.8834 34.0445 32.8256 34.16 32.71C34.2756 32.5945 34.3334 32.4645 34.3334 32.32C34.3334 32.1756 34.2756 32.06 34.16 31.9734C34.0445 31.8867 33.9289 31.8434 33.8134 31.8434H28.7ZM25.6667 21.7034C25.4934 21.6456 25.3634 21.6745 25.2767 21.79C25.19 21.9056 25.1467 22.05 25.1467 22.2234V24.39C25.1467 24.5056 25.19 24.6211 25.2767 24.7367C25.3634 24.8523 25.4934 24.91 25.6667 24.91H29.48C29.5956 24.91 29.7111 24.8523 29.8267 24.7367C29.9422 24.6211 30 24.5056 30 24.39V22.2234C30 22.05 29.9422 21.9056 29.8267 21.79C29.7111 21.6745 29.5956 21.6456 29.48 21.7034H25.6667ZM26.1867 22.7434H28.96V23.7834H26.1867V22.7434ZM39.1867 16.07C38.32 16.07 37.5689 16.3878 36.9334 17.0234C36.2978 17.6589 35.98 18.4245 35.98 19.32C35.98 20.2156 36.2978 20.9811 36.9334 21.6167C37.5689 22.2523 38.3345 22.57 39.23 22.57C40.1256 22.57 40.8911 22.2523 41.5267 21.6167C42.1622 20.9811 42.48 20.2156 42.48 19.32C42.48 18.4245 42.1622 17.6589 41.5267 17.0234C40.8911 16.3878 40.1111 16.07 39.1867 16.07ZM39.1867 17.1967C39.8222 17.1967 40.3422 17.3989 40.7467 17.8034C41.1511 18.2078 41.3534 18.7134 41.3534 19.32C41.3534 19.9267 41.1511 20.4467 40.7467 20.88C40.3422 21.3134 39.8367 21.53 39.23 21.53C38.6234 21.53 38.1034 21.3134 37.67 20.88C37.2367 20.4467 37.02 19.9267 37.02 19.32C37.02 18.7134 37.2367 18.2078 37.67 17.8034C38.1034 17.3989 38.6089 17.1967 39.1867 17.1967ZM24.28 35.31C24.28 35.4834 24.2222 35.6278 24.1067 35.7434C23.9911 35.8589 23.8611 35.9167 23.7167 35.9167C23.5722 35.9167 23.4422 35.8589 23.3267 35.7434C23.2111 35.6278 23.1534 35.4834 23.1534 35.31C23.1534 35.1367 23.2111 34.9923 23.3267 34.8767C23.4422 34.7611 23.5722 34.7034 23.7167 34.7034C23.8611 34.7034 23.9911 34.7611 24.1067 34.8767C24.2222 34.9923 24.28 35.1367 24.28 35.31ZM30.6067 33.4034C30.3756 33.4034 30.2022 33.49 30.0867 33.6634L29.8267 34.0967C29.7111 34.27 29.6822 34.4289 29.74 34.5734C29.7978 34.7178 29.8845 34.8189 30 34.8767C30.1156 34.9345 30.2456 34.9489 30.39 34.92C30.5345 34.8911 30.6645 34.8189 30.78 34.7034L31.04 34.1834C31.0978 34.0678 31.1122 33.9378 31.0834 33.7934C31.0545 33.6489 30.9822 33.5478 30.8667 33.49C30.7511 33.4323 30.6645 33.4034 30.6067 33.4034ZM32.1667 33.4034C31.9934 33.4034 31.8489 33.49 31.7334 33.6634L31.4734 34.0967C31.3578 34.27 31.3289 34.4289 31.3867 34.5734C31.4445 34.7178 31.5311 34.8189 31.6467 34.8767C31.7622 34.9345 31.8922 34.9489 32.0367 34.92C32.1811 34.8911 32.2822 34.8189 32.34 34.7034L32.6 34.1834C32.7156 34.0678 32.7445 33.9378 32.6867 33.7934C32.6289 33.6489 32.5567 33.5478 32.47 33.49C32.3834 33.4323 32.2822 33.4034 32.1667 33.4034Z" fill="#1A1A1A"/>
</g>
<defs>
<clipPath id="clip0_2_1652">
<rect width="26" height="26" fill="white" transform="matrix(1 0 0 -1 17 41.55)"/>
</clipPath>
</defs>
</svg>
