<svg width="150" height="43" viewBox="0 0 150 43" fill="none" xmlns="http://www.w3.org/2000/svg">
<g clip-path="url(#clip0_2_432)">
<g clip-path="url(#clip1_2_432)">
<path fill-rule="evenodd" clip-rule="evenodd" d="M18.3353 12.2696L18.3265 42.7511L21.5809 42.7421L21.5719 32.1022L27.3211 32.0931L27.312 42.7421H30.7184V1.39307L27.3029 3.65773L27.2987 28.8781L21.6077 28.8592L21.6122 6.6538L0 19.1554L0.0290845 36.2919L3.44454 36.3012L3.44896 21.0514L18.3353 12.2696Z" fill="white"/>
<path fill-rule="evenodd" clip-rule="evenodd" d="M12.4252 42.5995V19.4434L9.06417 21.4133L9.13512 39.4548L0.051491 39.3835L0.0065918 42.5813L12.4252 42.5995Z" fill="white"/>
<path d="M54.2941 25.4542V14.2548H57.0439V25.4542C57.0439 26.5165 56.8166 27.4215 56.362 28.1688C55.9073 28.9162 55.2877 29.4877 54.5031 29.8834C53.7184 30.279 52.8275 30.4768 51.8302 30.4768C50.8109 30.4768 49.9053 30.3046 49.1134 29.9602C48.3287 29.6159 47.7128 29.0884 47.2654 28.3777C46.8181 27.6669 46.5945 26.7657 46.5945 25.674H49.3663C49.3663 26.3041 49.4653 26.8133 49.6633 27.2017C49.8687 27.5827 50.1547 27.8611 50.5213 28.0369C50.8953 28.2055 51.3316 28.2897 51.8302 28.2897C52.3069 28.2897 52.7285 28.1835 53.0952 27.971C53.4691 27.7512 53.7625 27.4324 53.9751 27.0148C54.1878 26.5898 54.2941 26.0696 54.2941 25.4542Z" fill="white"/>
<path d="M67.1195 27.4544V18.3652H69.7813V30.257H67.2735L67.1195 27.4544ZM67.4934 24.9816L68.3844 24.9596C68.3844 25.7582 68.2964 26.4946 68.1204 27.1687C67.9444 27.8354 67.6731 28.418 67.3065 28.9162C66.9398 29.4071 66.4705 29.7918 65.8985 30.0702C65.3265 30.3413 64.6409 30.4768 63.8416 30.4768C63.2623 30.4768 62.7307 30.3925 62.2467 30.224C61.7628 30.0555 61.3448 29.7954 60.9928 29.4437C60.6481 29.0921 60.3805 28.6341 60.1899 28.0699C59.9991 27.5057 59.9038 26.8316 59.9038 26.0477V18.3652H62.5547V26.0696C62.5547 26.5019 62.6061 26.8646 62.7087 27.1577C62.8113 27.4435 62.9507 27.6742 63.1266 27.8501C63.3027 28.0259 63.508 28.1505 63.7426 28.2238C63.9773 28.297 64.2266 28.3336 64.4906 28.3336C65.2459 28.3336 65.8398 28.1872 66.2725 27.8941C66.7125 27.5936 67.0242 27.1907 67.2075 26.6851C67.3981 26.1796 67.4934 25.6117 67.4934 24.9816Z" fill="white"/>
<path d="M79.1745 27.0368C79.1745 26.773 79.1085 26.5349 78.9765 26.3224C78.8445 26.1026 78.5917 25.9048 78.2175 25.7289C77.8515 25.5531 77.3085 25.3918 76.59 25.2454C75.9592 25.1061 75.3802 24.9412 74.852 24.7507C74.3314 24.553 73.8841 24.3148 73.51 24.0364C73.1361 23.758 72.8464 23.4283 72.6411 23.0473C72.4358 22.6662 72.3331 22.2266 72.3331 21.7284C72.3331 21.2448 72.4395 20.7868 72.6521 20.3545C72.8647 19.9222 73.1691 19.5412 73.5651 19.2115C73.961 18.8818 74.4413 18.6218 75.006 18.4313C75.5782 18.2407 76.2157 18.1454 76.92 18.1454C77.9175 18.1454 78.7717 18.3139 79.4827 18.651C80.2012 18.9808 80.751 19.4314 81.1327 20.0029C81.5137 20.567 81.705 21.2045 81.705 21.9152H79.0537C79.0537 21.6002 78.9727 21.307 78.8115 21.036C78.6577 20.7575 78.423 20.5341 78.108 20.3656C77.7922 20.1897 77.3962 20.1018 76.92 20.1018C76.4655 20.1018 76.0875 20.1751 75.7867 20.3215C75.4935 20.4608 75.2737 20.644 75.1267 20.8711C74.9877 21.0982 74.918 21.3474 74.918 21.6184C74.918 21.8163 74.9547 21.9958 75.0277 22.157C75.1087 22.3108 75.2407 22.4537 75.4237 22.5856C75.6075 22.7102 75.8565 22.8274 76.1722 22.9373C76.4947 23.0473 76.8982 23.1535 77.382 23.2561C78.291 23.4466 79.0717 23.692 79.725 23.9924C80.385 24.2855 80.8905 24.6665 81.243 25.1354C81.5947 25.5971 81.771 26.1832 81.771 26.8939C81.771 27.4215 81.657 27.905 81.4297 28.3447C81.21 28.777 80.8867 29.1543 80.4615 29.4767C80.0362 29.7917 79.527 30.0372 78.933 30.2131C78.3465 30.3889 77.6865 30.4768 76.953 30.4768C75.8752 30.4768 74.962 30.2863 74.2141 29.9053C73.4661 29.517 72.8977 29.0224 72.5091 28.4216C72.1278 27.8134 71.9371 27.1834 71.9371 26.5312H74.5C74.5294 27.0221 74.665 27.4142 74.907 27.7073C75.156 27.993 75.4642 28.2018 75.831 28.3336C76.2052 28.4582 76.59 28.5205 76.986 28.5205C77.4622 28.5205 77.862 28.4582 78.1845 28.3336C78.5077 28.2018 78.753 28.0259 78.9217 27.8062C79.0905 27.579 79.1745 27.3226 79.1745 27.0368Z" fill="white"/>
<path d="M89.547 18.3652V20.2996H82.8375V18.3652H89.547ZM84.7733 15.4528H87.4245V26.9708C87.4245 27.3372 87.4755 27.6193 87.5783 27.8171C87.6885 28.0076 87.8385 28.1359 88.029 28.2018C88.2203 28.2677 88.4438 28.3007 88.7003 28.3007C88.8833 28.3007 89.0595 28.2897 89.2283 28.2677C89.397 28.2457 89.5328 28.2238 89.6355 28.2018L89.646 30.224C89.4263 30.29 89.1698 30.3486 88.8765 30.3999C88.59 30.4512 88.26 30.4768 87.8865 30.4768C87.2775 30.4768 86.739 30.3706 86.2695 30.1581C85.8 29.9383 85.4333 29.5829 85.1693 29.092C84.9053 28.6011 84.7733 27.949 84.7733 27.1357V15.4528Z" fill="white"/>
<path d="M102.439 20.9371V23.1241H93.936V20.9371H102.439ZM94.6177 14.2548V30.257H91.857V14.2548H94.6177ZM104.561 14.2548V30.257H101.812V14.2548H104.561Z" fill="white"/>
<path d="M107.081 24.443V24.1903C107.081 23.333 107.205 22.538 107.454 21.8053C107.704 21.0652 108.063 20.4241 108.533 19.882C109.009 19.3324 109.588 18.9075 110.27 18.607C110.959 18.2993 111.737 18.1454 112.602 18.1454C113.474 18.1454 114.252 18.2993 114.934 18.607C115.623 18.9075 116.207 19.3324 116.683 19.882C117.16 20.4241 117.523 21.0652 117.772 21.8053C118.021 22.538 118.146 23.333 118.146 24.1903V24.443C118.146 25.3003 118.021 26.0953 117.772 26.8279C117.523 27.5607 117.16 28.2018 116.683 28.7513C116.207 29.2935 115.627 29.7185 114.945 30.0262C114.263 30.3266 113.489 30.4768 112.624 30.4768C111.751 30.4768 110.971 30.3266 110.281 30.0262C109.599 29.7185 109.02 29.2935 108.543 28.7513C108.067 28.2018 107.704 27.5607 107.454 26.8279C107.205 26.0953 107.081 25.3003 107.081 24.443ZM109.731 24.1903V24.443C109.731 24.9779 109.787 25.4835 109.896 25.9597C110.006 26.436 110.179 26.8536 110.413 27.2126C110.648 27.5717 110.948 27.8538 111.315 28.0589C111.682 28.264 112.118 28.3666 112.624 28.3666C113.115 28.3666 113.54 28.264 113.9 28.0589C114.266 27.8538 114.567 27.5717 114.802 27.2126C115.037 26.8536 115.209 26.436 115.319 25.9597C115.436 25.4835 115.495 24.9779 115.495 24.443V24.1903C115.495 23.6627 115.436 23.1645 115.319 22.6955C115.209 22.2193 115.033 21.798 114.791 21.4316C114.556 21.0652 114.256 20.7795 113.889 20.5744C113.53 20.3619 113.101 20.2556 112.602 20.2556C112.103 20.2556 111.671 20.3619 111.304 20.5744C110.945 20.7795 110.648 21.0652 110.413 21.4316C110.179 21.798 110.006 22.2193 109.896 22.6955C109.787 23.1645 109.731 23.6627 109.731 24.1903Z" fill="white"/>
<path d="M123.019 20.7832V30.257H120.367V18.3652H122.864L123.019 20.7832ZM122.59 23.8715L121.687 23.8606C121.687 23.0399 121.79 22.2816 121.996 21.5855C122.2 20.8895 122.501 20.2849 122.897 19.772C123.293 19.2518 123.784 18.8525 124.371 18.5741C124.965 18.2884 125.651 18.1454 126.428 18.1454C126.971 18.1454 127.465 18.226 127.913 18.3872C128.368 18.5411 128.76 18.7866 129.09 19.1236C129.427 19.4606 129.684 19.8929 129.86 20.4205C130.043 20.948 130.135 21.5855 130.135 22.3328V30.257H127.484V22.5637C127.484 21.9848 127.396 21.5305 127.22 21.2008C127.051 20.8711 126.806 20.6366 126.483 20.4974C126.168 20.3509 125.79 20.2776 125.35 20.2776C124.852 20.2776 124.426 20.3729 124.075 20.5634C123.73 20.7539 123.448 21.014 123.227 21.3437C123.007 21.6734 122.846 22.0544 122.743 22.4867C122.641 22.919 122.59 23.3806 122.59 23.8715ZM129.97 23.1681L128.727 23.4429C128.727 22.7248 128.826 22.0471 129.024 21.4096C129.229 20.7649 129.526 20.2007 129.915 19.7171C130.311 19.2262 130.798 18.8415 131.378 18.5631C131.957 18.2847 132.621 18.1454 133.369 18.1454C133.978 18.1454 134.52 18.2297 134.997 18.3982C135.481 18.5594 135.892 18.8159 136.228 19.1676C136.566 19.5193 136.822 19.9772 136.999 20.5414C137.175 21.0982 137.263 21.7723 137.263 22.5637V30.257H134.601V22.5526C134.601 21.9518 134.512 21.4866 134.337 21.1569C134.168 20.8271 133.926 20.6 133.611 20.4754C133.295 20.3436 132.918 20.2776 132.478 20.2776C132.067 20.2776 131.704 20.3546 131.389 20.5085C131.081 20.655 130.821 20.8638 130.608 21.1348C130.396 21.3986 130.234 21.7027 130.124 22.0471C130.021 22.3915 129.97 22.7651 129.97 23.1681Z" fill="white"/>
<path d="M145.237 30.4768C144.357 30.4768 143.562 30.334 142.85 30.0482C142.147 29.7551 141.545 29.3485 141.046 28.8283C140.555 28.3081 140.177 27.6962 139.913 26.9929C139.649 26.2895 139.517 25.5311 139.517 24.7178V24.2782C139.517 23.3476 139.653 22.505 139.924 21.7504C140.196 20.9956 140.573 20.3509 141.058 19.816C141.541 19.2738 142.114 18.8599 142.774 18.5741C143.433 18.2884 144.148 18.1454 144.918 18.1454C145.769 18.1454 146.513 18.2884 147.151 18.5741C147.789 18.8599 148.317 19.2628 148.735 19.783C149.16 20.296 149.476 20.9077 149.681 21.6184C149.893 22.3292 150 23.1132 150 23.9704V25.1025H140.804V23.2011H147.382V22.9923C147.367 22.516 147.272 22.0691 147.096 21.6515C146.927 21.2338 146.667 20.8967 146.315 20.6403C145.963 20.3839 145.494 20.2556 144.907 20.2556C144.467 20.2556 144.075 20.3509 143.73 20.5414C143.393 20.7246 143.11 20.992 142.883 21.3437C142.656 21.6954 142.48 22.1203 142.355 22.6186C142.238 23.1095 142.18 23.6627 142.18 24.2782V24.7178C142.18 25.238 142.249 25.7216 142.388 26.1685C142.535 26.6082 142.747 26.9929 143.026 27.3226C143.305 27.6523 143.642 27.9124 144.038 28.1029C144.434 28.286 144.885 28.3777 145.391 28.3777C146.029 28.3777 146.597 28.2494 147.096 27.993C147.595 27.7365 148.027 27.3739 148.394 26.9049L149.791 28.2568C149.534 28.6304 149.2 28.9895 148.79 29.3339C148.379 29.6709 147.877 29.9456 147.283 30.1581C146.696 30.3706 146.014 30.4768 145.237 30.4768Z" fill="white"/>
</g>
</g>
<defs>
<clipPath id="clip0_2_432">
<rect width="150" height="42" fill="white" transform="translate(0 0.75)"/>
</clipPath>
<clipPath id="clip1_2_432">
<rect width="150" height="42" fill="white" transform="translate(0 0.75)"/>
</clipPath>
</defs>
</svg>
