<svg width="81" height="81" viewBox="0 0 81 81" fill="none" xmlns="http://www.w3.org/2000/svg">
<rect x="0.639648" y="0.199951" width="80" height="80" rx="40" fill="#E7C873"/>
<g clip-path="url(#clip0_2_2229)">
<path d="M41.5731 40.9333C41.3398 40.9333 41.1453 40.8555 40.9898 40.7C39.9787 39.7666 39.512 38.6388 39.5898 37.3166C39.5898 36.3055 39.8231 35.3722 40.2898 34.5166C40.3676 34.2833 40.5037 34.1472 40.6981 34.1083C40.8926 34.0694 41.087 34.1083 41.2814 34.225C41.4759 34.3416 41.5926 34.4972 41.6314 34.6916C41.6703 34.8861 41.6509 35.0611 41.5731 35.2166C41.262 35.6055 41.0676 36.15 40.9898 36.85C40.8342 37.9388 41.1842 38.8722 42.0398 39.65C42.2731 39.8833 42.3314 40.1555 42.2148 40.4666C42.0981 40.7777 41.8453 40.9333 41.4564 40.9333H41.5731ZM28.6231 44.0833C27.7676 44.0055 27.0287 43.6555 26.4064 43.0333C25.7064 42.3333 25.3564 41.4583 25.3564 40.4083C25.3564 39.3583 25.7064 38.4833 26.4064 37.7833L33.7564 30.3166C34.0676 30.0833 34.3398 29.8888 34.5731 29.7333C34.8064 29.5777 35.0203 29.5388 35.2148 29.6166C35.4092 29.6944 35.5453 29.8111 35.6231 29.9666C35.7009 30.1222 35.7203 30.2972 35.6814 30.4916C35.6426 30.6861 35.5259 30.8416 35.3314 30.9583C35.137 31.075 34.962 31.2111 34.8064 31.3666L27.4564 38.8333C26.9898 39.2222 26.7564 39.7472 26.7564 40.4083C26.7564 41.0694 26.9898 41.5944 27.4564 41.9833C27.6898 42.2944 28.0009 42.4888 28.3898 42.5666L30.6064 40.35C30.762 40.1944 30.9564 40.1166 31.1898 40.1166L32.2398 40.35L32.8231 39.7666V37.9C32.8231 37.7444 32.9009 37.5888 33.0564 37.4333C33.212 37.2777 33.3676 37.2 33.5231 37.2L35.5064 37.0833L38.0731 34.5166L38.3064 34.2833C38.3842 34.1277 38.5203 34.0305 38.7148 33.9916C38.9092 33.9527 39.1037 33.9916 39.2981 34.1083C39.4926 34.225 39.6092 34.3805 39.6481 34.575C39.687 34.7694 39.6287 34.9444 39.4731 35.1L39.1231 35.5666L36.3231 38.3666C36.1676 38.5222 36.012 38.6 35.8564 38.6H34.3398V40.1166C34.3398 40.35 34.262 40.5055 34.1064 40.5833L33.0564 41.75C32.9009 41.9055 32.7064 41.9444 32.4731 41.8666L31.4231 41.75L29.2064 43.9666C29.0509 44.0444 28.8564 44.0833 28.6231 44.0833ZM41.8064 35.6833C40.4064 35.6833 39.1037 35.3722 37.8981 34.75C36.6926 34.1277 35.7009 33.2527 34.9231 32.125C34.1453 30.9972 33.6981 29.7333 33.5814 28.3333C33.4648 26.9333 33.6787 25.6111 34.2231 24.3666C34.7676 23.1222 35.5842 22.0916 36.6731 21.275C37.762 20.4583 39.0064 19.9333 40.4064 19.7C40.6398 19.6222 40.8537 19.7 41.0481 19.9333C41.2426 20.1666 41.3009 20.4194 41.2231 20.6916C41.1453 20.9638 40.9509 21.1388 40.6398 21.2166C38.9287 21.45 37.5481 22.2666 36.4981 23.6666C35.4481 25.0666 35.0398 26.6416 35.2731 28.3916C35.5064 30.1416 36.2842 31.5611 37.6064 32.65C38.9287 33.7388 40.4453 34.2444 42.1564 34.1666C43.8676 34.0888 45.3259 33.4083 46.5314 32.125C47.737 30.8416 48.3398 29.3444 48.3398 27.6333C48.3398 26.5444 48.1064 25.5333 47.6398 24.6C47.1731 23.6666 46.4731 22.8888 45.5398 22.2666C45.3842 22.1111 45.3064 21.9361 45.3064 21.7416C45.3064 21.5472 45.3648 21.3722 45.4814 21.2166C45.5981 21.0611 45.7537 20.9638 45.9481 20.9249C46.1426 20.8861 46.3176 20.9444 46.4731 21.1C47.8731 22.1111 48.8648 23.4333 49.4481 25.0666C50.0314 26.7 50.0509 28.3527 49.5064 30.025C48.962 31.6972 47.9898 33.0583 46.5898 34.1083C45.1898 35.1583 43.5953 35.6833 41.8064 35.6833ZM43.4398 21.2166C43.362 21.2166 43.2648 21.1972 43.1481 21.1583C43.0314 21.1194 42.9148 21.0222 42.7981 20.8666C42.6814 20.7111 42.6426 20.5166 42.6814 20.2833C42.7203 20.0499 42.8759 19.875 43.1481 19.7583C43.4203 19.6416 43.6731 19.6805 43.9064 19.875C44.1398 20.0694 44.2176 20.2833 44.1398 20.5166C44.062 20.75 43.9648 20.9249 43.8481 21.0416C43.7314 21.1583 43.5564 21.2166 43.3231 21.2166H43.4398ZM42.8564 29.0333C42.0009 29.0333 41.3009 28.7611 40.7564 28.2166C40.212 27.6722 39.9398 26.9916 39.9398 26.175C39.9398 25.3583 40.212 24.6583 40.7564 24.075C41.3009 23.4916 41.9814 23.2 42.7981 23.2C43.6148 23.2 44.3148 23.4916 44.8981 24.075C45.4814 24.6583 45.7731 25.3583 45.7731 26.175C45.7731 26.9916 45.4814 27.6722 44.8981 28.2166C44.3148 28.7611 43.6342 29.0333 42.8564 29.0333ZM42.8564 24.7166C42.4676 24.7166 42.1176 24.8527 41.8064 25.125C41.4953 25.3972 41.3398 25.7277 41.3398 26.1166C41.3398 26.5055 41.4953 26.8555 41.8064 27.1666C42.1176 27.4777 42.4676 27.6333 42.8564 27.6333C43.2453 27.6333 43.5759 27.4777 43.8481 27.1666C44.1203 26.8555 44.2564 26.5055 44.2564 26.1166C44.2564 25.7277 44.1203 25.3972 43.8481 25.125C43.5759 24.8527 43.2453 24.7166 42.8564 24.7166ZM52.3064 54.7C52.1509 54.7 51.9953 54.6222 51.8398 54.4666C51.6842 54.3111 51.6064 54.1555 51.6064 54V45.7166V45.3666C51.5287 45.1333 51.5676 44.9194 51.7231 44.725C51.8787 44.5305 52.0731 44.4722 52.3064 44.55H53.1231L45.3064 38.1333L37.3731 44.4333H38.1898C38.5009 44.4333 38.7148 44.5305 38.8314 44.725C38.9481 44.9194 39.0064 45.1333 39.0064 45.3666L38.8898 45.7166V54C38.8898 54.1555 38.8314 54.3111 38.7148 54.4666C38.5981 54.6222 38.4231 54.7 38.1898 54.7C37.9564 54.7 37.7814 54.6222 37.6648 54.4666C37.5481 54.3111 37.4898 54.1555 37.4898 54V45.95H35.2731C34.962 45.95 34.7481 45.7944 34.6314 45.4833C34.5148 45.1722 34.5731 44.9 34.8064 44.6666L44.8398 36.6166C44.9176 36.5388 45.0537 36.5 45.2481 36.5C45.4426 36.5 45.6176 36.5388 45.7731 36.6166L55.6898 44.6666C55.9231 44.9 55.9814 45.1722 55.8648 45.4833C55.7481 45.7944 55.5342 45.95 55.2231 45.95H53.1231V54C53.1231 54.1555 53.0453 54.3111 52.8898 54.4666C52.7342 54.6222 52.5398 54.7 52.3064 54.7ZM45.3064 43.15C45.1509 43.15 44.9953 43.0722 44.8398 42.9166C44.6842 42.7611 44.6064 42.5861 44.6064 42.3916C44.6064 42.1972 44.6842 42.0222 44.8398 41.8666C47.4842 39.5333 48.6898 37.1611 48.4564 34.75C48.2231 32.8055 47.1731 30.9 45.3064 29.0333C44.3731 28.1 43.4398 27.3611 42.5064 26.8166C42.1953 26.6611 42.0398 26.4277 42.0398 26.1166C42.0398 25.8055 42.1759 25.5916 42.4481 25.475C42.7203 25.3583 42.9731 25.3777 43.2064 25.5333C44.2953 26.1555 45.3453 27.0111 46.3564 28.1C48.4564 30.2 49.6231 32.3388 49.8564 34.5166C50.1676 37.4722 48.8064 40.3111 45.7731 43.0333C45.6953 43.1111 45.5398 43.15 45.3064 43.15ZM47.1731 54.4666C47.0176 54.4666 46.862 54.4083 46.7064 54.2916C46.5509 54.175 46.4731 54 46.4731 53.7666V49.3333C46.4731 49.0222 46.3759 48.7694 46.1814 48.575C45.987 48.3805 45.7342 48.2833 45.4231 48.2833H44.6064C44.2953 48.2833 44.0426 48.3805 43.8481 48.575C43.6537 48.7694 43.5564 49.0222 43.5564 49.3333V53.7666C43.5564 54 43.4787 54.175 43.3231 54.2916C43.1676 54.4083 42.9926 54.4666 42.7981 54.4666C42.6037 54.4666 42.4287 54.4083 42.2731 54.2916C42.1176 54.175 42.0398 54 42.0398 53.7666V49.3333C42.0398 48.6333 42.2926 48.0305 42.7981 47.525C43.3037 47.0194 43.9064 46.7666 44.6064 46.7666H45.4231C46.1231 46.7666 46.7259 47.0194 47.2314 47.525C47.737 48.0305 47.9509 48.6333 47.8731 49.3333V53.7666C47.9509 54 47.912 54.175 47.7564 54.2916C47.6009 54.4083 47.4064 54.4666 47.1731 54.4666Z" fill="#1A1A1A"/>
</g>
<defs>
<clipPath id="clip0_2_2229">
<rect width="35" height="35" fill="white" transform="matrix(1 0 0 -1 23.1396 54.7)"/>
</clipPath>
</defs>
</svg>
