<svg width="41" height="41" viewBox="0 0 41 41" fill="none" xmlns="http://www.w3.org/2000/svg">
<rect x="0.469971" y="0.390015" width="40" height="40" rx="20" fill="white"/>
<g clip-path="url(#clip0_2_503)">
<path d="M24.07 22.43C23.91 22.43 23.8 22.35 23.74 22.19C23.68 22.03 23.71 21.89 23.83 21.77C23.95 21.65 24.09 21.64 24.25 21.74C24.41 21.84 24.47 21.95 24.43 22.07C24.39 22.19 24.34 22.28 24.28 22.34C24.22 22.4 24.15 22.43 24.07 22.43ZM22.09 15.83H18.85C18.73 15.83 18.64 15.86 18.58 15.92C18.52 15.98 18.49 16.07 18.49 16.19V20.63C18.49 20.75 18.52 20.84 18.58 20.9C18.64 20.96 18.73 20.99 18.85 20.99H22.09C22.21 20.99 22.3 20.96 22.36 20.9C22.42 20.84 22.45 20.75 22.45 20.63V16.19C22.45 16.07 22.42 15.98 22.36 15.92C22.3 15.86 22.21 15.83 22.09 15.83ZM19.15 16.55H20.11V20.33H19.15V16.55ZM21.79 20.33H20.83V16.55H21.79V20.33ZM29.29 19.07L24.43 16.19V13.61C24.43 13.49 24.39 13.39 24.31 13.31L20.71 10.49C20.55 10.41 20.39 10.41 20.23 10.49L16.63 13.31C16.55 13.39 16.51 13.49 16.51 13.61V16.19L11.65 19.07C11.53 19.11 11.47 19.21 11.47 19.37V21.29C11.47 21.41 11.51 21.5 11.59 21.56C11.67 21.62 11.74 21.65 11.8 21.65C11.86 21.65 11.93 21.63 12.01 21.59L12.25 21.47V26.99C12.25 27.07 12.28 27.15 12.34 27.23C12.4 27.31 12.49 27.35 12.61 27.35H28.33C28.45 27.35 28.54 27.31 28.6 27.23C28.66 27.15 28.69 27.07 28.69 26.99V21.47L28.93 21.59C29.01 21.63 29.08 21.65 29.14 21.65C29.2 21.65 29.27 21.62 29.35 21.56C29.43 21.5 29.47 21.41 29.47 21.29V19.37C29.47 19.21 29.41 19.11 29.29 19.07ZM20.47 11.21L23.71 13.79V14.93L20.71 12.59C20.55 12.47 20.39 12.47 20.23 12.59L17.23 14.93V13.79L20.47 11.21ZM12.19 19.55L16.51 16.97V18.11L12.19 20.69V19.55ZM12.97 22.73H14.47V24.83H12.97V22.73ZM12.97 25.49H14.83C14.95 25.49 15.04 25.46 15.1 25.4C15.16 25.34 15.19 25.25 15.19 25.13V22.37C15.19 22.25 15.16 22.16 15.1 22.1C15.04 22.04 14.95 22.01 14.83 22.01H12.97V21.05L16.51 18.95V26.63H12.97V25.49ZM19.63 26.63V22.79H21.31V26.63H19.63ZM27.97 24.83H26.35V22.73H27.97V24.83ZM27.97 22.01H25.99C25.91 22.01 25.84 22.04 25.78 22.1C25.72 22.16 25.69 22.25 25.69 22.37V25.13C25.69 25.25 25.72 25.34 25.78 25.4C25.84 25.46 25.91 25.49 25.99 25.49H27.97V26.63H24.43V23.63C24.43 23.55 24.4 23.47 24.34 23.39C24.28 23.31 24.2 23.27 24.1 23.27C24 23.27 23.91 23.31 23.83 23.39C23.75 23.47 23.71 23.55 23.71 23.63V26.63H21.97V22.49C21.97 22.37 21.94 22.28 21.88 22.22C21.82 22.16 21.75 22.13 21.67 22.13H19.27C19.19 22.13 19.12 22.16 19.06 22.22C19 22.28 18.97 22.37 18.97 22.49V26.63H17.23V15.83L20.47 13.31L23.71 15.83V20.45C23.71 20.57 23.75 20.66 23.83 20.72C23.91 20.78 24 20.81 24.1 20.81C24.2 20.81 24.28 20.78 24.34 20.72C24.4 20.66 24.43 20.57 24.43 20.45V18.95L27.97 21.05V22.01ZM28.75 20.69L24.43 18.11V16.97L28.75 19.55V20.69Z" fill="#1A1A1A"/>
</g>
<defs>
<clipPath id="clip0_2_503">
<rect width="18" height="18" fill="white" transform="matrix(1 0 0 -1 11.47 27.89)"/>
</clipPath>
</defs>
</svg>
