<svg width="52" height="55" viewBox="0 0 52 55" fill="none" xmlns="http://www.w3.org/2000/svg">
<path d="M26.3201 54.09C25.5201 54.09 24.7868 53.89 24.1201 53.49L15.3201 48.29C11.5868 46.1566 8.55346 43.2233 6.22013 39.49C3.88679 35.7566 2.52013 31.7566 2.12013 27.49L0.920127 12.49C0.786794 11.4233 0.986794 10.4566 1.52013 9.58997C2.05346 8.7233 2.78679 8.15663 3.72013 7.88997C5.18679 7.48996 6.52013 6.88997 7.72013 6.08997C9.18679 5.15663 10.5201 3.95663 11.7201 2.48996C12.5201 1.4233 13.6535 0.889965 15.1201 0.889965H37.5201C38.9868 0.889965 40.1201 1.4233 40.9201 2.48996C42.1201 3.95663 43.4535 5.15663 44.9201 6.08997C46.1201 6.88997 47.4535 7.48996 48.9201 7.88997C49.8535 8.15663 50.5868 8.7233 51.1201 9.58997C51.6535 10.4566 51.9201 11.3566 51.9201 12.29L50.5201 27.29C50.2535 31.69 48.9535 35.7233 46.6201 39.39C44.2868 43.0566 41.2535 46.0233 37.5201 48.29L28.7201 53.49C27.9201 53.89 27.1201 54.09 26.3201 54.09ZM15.1201 4.48996C14.8535 4.48996 14.6535 4.55663 14.5201 4.68996C13.1868 6.4233 11.6535 7.95663 9.92013 9.28997C8.45346 10.2233 6.85346 10.89 5.12013 11.29C4.72013 11.4233 4.52013 11.69 4.52013 12.09L5.92013 27.09C6.18679 30.8233 7.32013 34.29 9.32013 37.49C11.3201 40.69 13.9201 43.2233 17.1201 45.09L25.9201 50.29C26.1868 50.4233 26.4535 50.4233 26.7201 50.29L35.5201 45.09C38.7201 43.2233 41.3201 40.7233 43.3201 37.59C45.3201 34.4566 46.4535 30.9566 46.7201 27.09L48.1201 12.09C48.1201 11.8233 47.9201 11.6233 47.5201 11.49C45.7868 11.09 44.1868 10.3566 42.7201 9.28997C40.9868 8.08997 39.4535 6.6233 38.1201 4.88997C37.9868 4.75663 37.7868 4.68996 37.5201 4.68996L15.1201 4.48996ZM24.5201 33.29C23.9868 33.29 23.5201 33.09 23.1201 32.69L18.1201 27.69C17.8535 27.4233 17.7535 27.0566 17.8201 26.59C17.8868 26.1233 18.0868 25.7233 18.4201 25.39C18.7535 25.0566 19.1201 24.8566 19.5201 24.79C19.9201 24.7233 20.3201 24.8233 20.7201 25.09L24.5201 28.89L33.1201 20.09C33.5201 19.9566 33.9201 19.89 34.3201 19.89C34.7201 19.89 35.0868 20.0566 35.4201 20.39C35.7535 20.7233 35.9535 21.09 36.0201 21.49C36.0868 21.89 35.9868 22.29 35.7201 22.69L25.7201 32.69C25.4535 33.09 25.0535 33.29 24.5201 33.29Z" fill="#1A1A1A"/>
</svg>
