<svg width="87" height="87" viewBox="0 0 87 87" fill="none" xmlns="http://www.w3.org/2000/svg">
<rect x="0.879883" y="0.169922" width="86" height="86" rx="43" fill="#1A1A1A" fill-opacity="0.5"/>
<rect x="1.37988" y="0.669922" width="85" height="85" rx="42.5" stroke="white" stroke-opacity="0.1"/>
<rect x="1.87988" y="1.16992" width="84" height="84" rx="42" fill="#1A1A1A" fill-opacity="0.3"/>
<path d="M37.865 53.0702C38.3814 53.0694 38.8884 52.932 39.3346 52.672L51.3598 45.7156C51.8066 45.4576 52.1776 45.0866 52.4356 44.6398C52.6935 44.193 52.8294 43.6861 52.8294 43.1702C52.8294 42.6543 52.6935 42.1474 52.4356 41.7006C52.1776 41.2538 51.8066 40.8827 51.3598 40.6248L39.3346 33.6772C38.8877 33.422 38.3818 33.2885 37.8672 33.2901C37.3526 33.2916 36.8474 33.4281 36.4021 33.6859C35.9568 33.9438 35.5869 34.3139 35.3294 34.7594C35.0719 35.2049 34.9357 35.7102 34.9346 36.2248V50.1156C34.9334 50.8954 35.241 51.6439 35.7901 52.1976C36.3392 52.7512 37.0852 53.065 37.865 53.0702ZM36.4636 36.2248C36.4617 35.9784 36.5256 35.7361 36.6486 35.5226C36.7715 35.3092 36.9492 35.1324 37.1632 35.0104C37.3759 34.8865 37.6177 34.8212 37.8639 34.8212C38.1101 34.8212 38.3518 34.8865 38.5646 35.0104L50.5964 41.958C50.8083 42.081 50.9841 42.2576 51.1064 42.4699C51.2286 42.6823 51.293 42.923 51.293 43.168C51.293 43.413 51.2286 43.6537 51.1064 43.8661C50.9841 44.0784 50.8083 44.255 50.5964 44.378L38.5646 51.33C38.3515 51.4528 38.1099 51.5173 37.864 51.5171C37.6181 51.5169 37.3766 51.4521 37.1637 51.329C36.9508 51.206 36.774 51.0291 36.6511 50.8161C36.5282 50.6031 36.4636 50.3615 36.4636 50.1156V36.2248Z" fill="white"/>
</svg>
