<svg width="19" height="20" viewBox="0 0 19 20" fill="none" xmlns="http://www.w3.org/2000/svg">
<path d="M3.21507 19.7904C3.73148 19.7896 4.23849 19.6522 4.68467 19.3922L16.7099 12.4358C17.1567 12.1778 17.5277 11.8068 17.7857 11.36C18.0436 10.9132 18.1795 10.4063 18.1795 9.89038C18.1795 9.37448 18.0436 8.86761 17.7857 8.4208C17.5277 7.97399 17.1567 7.60295 16.7099 7.34498L4.68467 0.397377C4.23782 0.142207 3.73185 0.00872708 3.21727 0.0102671C2.7027 0.0117971 2.19753 0.148307 1.75221 0.406147C1.3069 0.663987 0.937012 1.03414 0.679492 1.47964C0.421982 1.92514 0.285841 2.43041 0.284671 2.94498V16.8358C0.283491 17.6156 0.591081 18.3641 1.1402 18.9178C1.68932 19.4714 2.4353 19.7852 3.21507 19.7904ZM1.81367 2.94498C1.81184 2.69865 1.8757 2.45629 1.99866 2.24284C2.12163 2.02939 2.29926 1.85257 2.51327 1.73058C2.72602 1.60672 2.96779 1.54146 3.21397 1.54146C3.46015 1.54146 3.70193 1.60672 3.91467 1.73058L15.9465 8.67818C16.1584 8.80122 16.3342 8.97778 16.4565 9.19008C16.5787 9.40248 16.6431 9.64318 16.6431 9.88818C16.6431 10.1332 16.5787 10.3739 16.4565 10.5863C16.3342 10.7986 16.1584 10.9752 15.9465 11.0982L3.91467 18.0502C3.7016 18.173 3.45999 18.2375 3.21409 18.2373C2.96819 18.2371 2.72666 18.1723 2.51377 18.0492C2.30088 17.9262 2.12411 17.7493 2.00122 17.5363C1.87833 17.3233 1.81365 17.0817 1.81367 16.8358V2.94498Z" fill="white"/>
</svg>
