<svg width="60" height="60" viewBox="0 0 60 60" fill="none" xmlns="http://www.w3.org/2000/svg">
<path d="M58.6602 43.0899L56.8605 41.4899V34.4899C56.8605 33.2899 56.4272 32.2566 55.5607 31.3899C54.6942 30.5233 53.6943 30.0899 52.5612 30.0899C51.4281 30.0899 50.4615 30.4233 49.6617 31.0899C48.8618 31.7566 48.3286 32.6232 48.0619 33.6899L46.4622 32.2899C45.6623 31.4899 44.6625 31.0899 43.4627 31.0899C42.2629 31.0899 41.1964 31.4899 40.2632 32.2899L28.0653 43.0899C27.7987 43.3566 27.6653 43.6899 27.6653 44.0899C27.6653 44.4899 27.7653 44.8232 27.9653 45.0899C28.1653 45.3566 28.4652 45.4899 28.8651 45.4899C29.2651 45.4899 29.5984 45.4233 29.865 45.2899V55.0899C29.865 56.2899 30.2649 57.2899 31.0648 58.0899C31.8646 58.8899 32.7978 59.2899 33.8643 59.2899H52.8611C54.0609 59.2899 55.0275 58.8899 55.7607 58.0899C56.4939 57.2899 56.8605 56.2899 56.8605 55.0899V45.2899C57.2604 45.4233 57.627 45.4899 57.9603 45.4899C58.2936 45.4899 58.5935 45.3232 58.8601 44.9899C59.1268 44.6566 59.2268 44.3232 59.1601 43.9899C59.0934 43.6566 58.9268 43.3566 58.6602 43.0899ZM45.8623 56.4899H41.2631V53.0899C41.2631 52.5566 41.463 52.0899 41.863 51.6899C42.2629 51.2899 42.7295 51.0899 43.2627 51.0899H43.8626C44.3959 51.0899 44.8625 51.2899 45.2624 51.6899C45.6623 52.0899 45.8623 52.5566 45.8623 53.0899V56.4899ZM54.0609 55.0899C54.0609 55.4899 53.961 55.8233 53.761 56.0899C53.561 56.3566 53.2611 56.4899 52.8611 56.4899H48.6618V53.0899C48.6618 51.7566 48.1953 50.6233 47.2621 49.6899C46.3289 48.7566 45.1958 48.2899 43.8626 48.2899H43.2627C41.9296 48.2899 40.7965 48.7566 39.8633 49.6899C38.9301 50.6233 38.4635 51.7566 38.4635 53.0899V56.4899H33.8643C33.5977 56.4899 33.3311 56.3566 33.0644 56.0899C32.7978 55.8233 32.6645 55.4899 32.6645 55.0899V42.6899L42.0629 34.4899C42.4629 34.0899 42.8961 33.8899 43.3627 33.8899C43.8293 33.8899 44.2626 34.0899 44.6625 34.4899L54.0609 42.6899V55.0899ZM54.0609 34.4899V39.0899L50.8615 36.0899V34.4899C50.8615 34.0899 50.9948 33.7232 51.2614 33.3899C51.528 33.0566 51.8946 32.8566 52.3612 32.7899C52.8278 32.7232 53.2278 32.8566 53.561 33.1899C53.8943 33.5233 54.0609 33.9566 54.0609 34.4899ZM43.4627 37.2899C42.2629 37.2899 41.2631 37.7232 40.4632 38.5899C39.6633 39.4566 39.2634 40.4566 39.2634 41.5899C39.2634 42.7232 39.6633 43.6899 40.4632 44.4899C41.2631 45.2899 42.2296 45.6899 43.3627 45.6899C44.4959 45.6899 45.4957 45.2899 46.3622 44.4899C47.2288 43.6899 47.662 42.7232 47.662 41.5899C47.662 40.4566 47.2288 39.4566 46.3622 38.5899C45.4957 37.7232 44.5292 37.2899 43.4627 37.2899ZM44.6625 41.4899C44.6625 41.8899 44.5625 42.2232 44.3626 42.4899C44.1626 42.7566 43.8626 42.8899 43.4627 42.8899C43.0628 42.8899 42.7295 42.7566 42.4629 42.4899C42.1963 42.2232 42.0629 41.8899 42.0629 41.4899C42.0629 41.0899 42.1963 40.7566 42.4629 40.4899C42.7295 40.2232 43.0628 40.0899 43.4627 40.0899C43.8626 40.0899 44.1626 40.2232 44.3626 40.4899C44.5625 40.7566 44.6625 41.0899 44.6625 41.4899ZM25.2657 56.2899H7.46871C6.26891 56.2899 5.20242 55.8566 4.26925 54.9899C3.33607 54.1233 2.86948 53.0899 2.86948 51.8899V7.48992C2.86948 6.28992 3.33607 5.22325 4.26925 4.28992C5.20242 3.35658 6.26891 2.88992 7.46871 2.88992H48.0619C49.3951 2.88992 50.4949 3.35658 51.3614 4.28992C52.2279 5.22325 52.6612 6.28992 52.6612 7.48992V25.2899C52.6612 25.6899 52.7945 26.0233 53.0611 26.2899C53.3277 26.5566 53.661 26.6899 54.0609 26.6899C54.4609 26.6899 54.7942 26.5566 55.0608 26.2899C55.3274 26.0233 55.4607 25.6899 55.4607 25.2899V7.48992C55.4607 5.48992 54.7275 3.75658 53.2611 2.28992C51.7947 0.82325 50.0616 0.0899162 48.0619 0.0899162H7.46871C5.46905 0.0899162 3.736 0.82325 2.26958 2.28992C0.803157 3.75658 0.0699463 5.48992 0.0699463 7.48992V51.8899C0.0699463 53.8899 0.803157 55.6233 2.26958 57.0899C3.736 58.5566 5.46905 59.2899 7.46871 59.2899H25.2657C25.6657 59.2899 26.0323 59.1233 26.3656 58.7899C26.6988 58.4566 26.8655 58.1233 26.8655 57.7899C26.8655 57.4566 26.6988 57.1233 26.3656 56.7899C26.0323 56.4566 25.6657 56.2899 25.2657 56.2899ZM42.6628 14.2899C42.6628 13.8899 42.5295 13.5566 42.2629 13.2899C41.9963 13.0233 41.663 12.8899 41.2631 12.8899H13.4677C13.0678 12.8899 12.7345 13.0233 12.4679 13.2899C12.2013 13.5566 12.0679 13.8899 12.0679 14.2899C12.0679 14.6899 12.2013 15.0233 12.4679 15.2899C12.7345 15.5566 13.0678 15.6899 13.4677 15.6899H41.2631C41.663 15.6899 41.9963 15.5566 42.2629 15.2899C42.5295 15.0233 42.6628 14.6899 42.6628 14.2899ZM35.864 25.0899C35.864 24.8232 35.7307 24.5233 35.464 24.1899C35.1974 23.8566 34.8641 23.6899 34.4642 23.6899H13.4677C13.0678 23.6899 12.7345 23.8566 12.4679 24.1899C12.2013 24.5233 12.0679 24.8566 12.0679 25.1899C12.0679 25.5233 12.2013 25.8566 12.4679 26.1899C12.7345 26.5233 13.0678 26.6899 13.4677 26.6899H34.4642C34.8641 26.6899 35.1974 26.5233 35.464 26.1899C35.7307 25.8566 35.864 25.4899 35.864 25.0899ZM13.4677 34.6899C13.0678 34.6899 12.7345 34.8232 12.4679 35.0899C12.2013 35.3566 12.0679 35.6899 12.0679 36.0899C12.0679 36.4899 12.2013 36.8232 12.4679 37.0899C12.7345 37.3566 13.0678 37.4899 13.4677 37.4899H22.0663C22.3329 37.4899 22.6329 37.3566 22.9661 37.0899C23.2994 36.8232 23.466 36.4899 23.466 36.0899C23.466 35.6899 23.2994 35.3566 22.9661 35.0899C22.6329 34.8232 22.3329 34.6899 22.0663 34.6899H13.4677Z" fill="#1A1A1A"/>
</svg>
